<?xml version="1.0" encoding="UTF-8" standalone="no"?>
<!-- Created with Inkscape (http://www.inkscape.org/) -->

<svg
   width="180mm"
   height="70mm"
   viewBox="0 0 180 70"
   version="1.1"
   id="svg5"
   xml:space="preserve"
   inkscape:version="1.2.2 (732a01da63, 2022-12-09)"
   sodipodi:docname="sample.svg"
   xmlns:inkscape="http://www.inkscape.org/namespaces/inkscape"
   xmlns:sodipodi="http://sodipodi.sourceforge.net/DTD/sodipodi-0.dtd"
   xmlns="http://www.w3.org/2000/svg"
   xmlns:svg="http://www.w3.org/2000/svg"><sodipodi:namedview
     id="namedview7"
     pagecolor="#ffffff"
     bordercolor="#000000"
     borderopacity="0.25"
     inkscape:showpageshadow="2"
     inkscape:pageopacity="0.0"
     inkscape:pagecheckerboard="0"
     inkscape:deskcolor="#d1d1d1"
     inkscape:document-units="mm"
     showgrid="false"
     inkscape:zoom="1.7725401"
     inkscape:cx="540.46732"
     inkscape:cy="181.37813"
     inkscape:window-width="1128"
     inkscape:window-height="730"
     inkscape:window-x="-6"
     inkscape:window-y="-6"
     inkscape:window-maximized="1"
     inkscape:current-layer="layer1" /><defs
     id="defs2" /><g
     inkscape:label="Layer 1"
     inkscape:groupmode="layer"
     id="layer1"><path
       style="fill:#000000;stroke-width:0.132292"
       d="m 1.8491444,67.601345 c -0.620816,-0.89896 -0.789338,-1.48131 -0.85427007,-2.95204 -0.05149,-1.16631 -9.26e-4,-1.7027 0.30558107,-3.24114 0.232678,-1.1679 0.371866,-2.30417 0.379785,-3.10042 0.01105,-1.11138 -0.02878,-1.341088 -0.344082,-1.984372 -0.248871,-0.507746 -0.2811,-0.635947 -0.106694,-0.424416 0.942335,1.142928 1.105454,3.414038 0.477069,6.642228 -0.446714,2.29489 -0.4339,3.55195 0.04585,4.49792 0.166052,0.32742 0.393501,0.69949 0.505441,0.82682 0.11194,0.12733 0.142866,0.23151 0.06872,0.23151 -0.07414,0 -0.288974,-0.22324 -0.477404,-0.49609 z M 2.9495114,55.331293 V 42.697439 h 1.455208 1.455208 v -0.785138 c 0,-0.431826 0.06332,-0.952725 0.140708,-1.157552 0.138633,-0.366923 0.752658,-1.100018 0.921351,-1.100018 0.253951,0 0.828001,1.416462 0.890723,2.19785 l 0.06782,0.844858 H 20.505098 33.129666 l 0.43217,-0.329631 c 0.778643,-0.593901 1.799136,-0.554364 1.799136,0.0697 0,0.255017 0.128914,0.259929 6.821847,0.259929 h 6.821847 l 0.43217,-0.329631 c 0.778643,-0.593901 1.799136,-0.554364 1.799136,0.0697 0,0.256376 0.156551,0.259929 11.452055,0.259929 h 11.452056 l 0.432169,-0.329631 c 0.778644,-0.593901 1.799136,-0.554364 1.799136,0.0697 0,0.255017 0.128915,0.259929 6.821848,0.259929 h 6.821847 l 0.432169,-0.329631 c 0.778644,-0.593901 1.799136,-0.554364 1.799136,0.0697 0,0.255465 0.135179,0.259929 7.871352,0.259929 h 7.87136 l 0.002,-0.760677 c 0.003,-1.371675 -0.17453,-1.246758 2.85213,-2.003965 1.48382,-0.371217 2.75839,-0.674941 2.83238,-0.674941 0.0843,0 0.13452,0.64242 0.13452,1.719791 v 1.719792 h 17.45693 17.45695 l 0.0386,-1.02526 0.0386,-1.025261 2.64583,-0.683057 c 1.45521,-0.375682 2.75001,-0.688221 2.87735,-0.694532 0.2092,-0.01037 0.23151,0.154244 0.23151,1.708318 v 1.719792 h 11.97226 11.9724 V 55.331293 67.965145 H 90.725031 2.9495114 Z M 94.627635,67.039105 v -0.79375 H 48.854719 3.0818024 v 0.79375 0.79375 H 48.854719 94.627635 Z m 83.476035,0 v -0.79375 H 136.56409 95.02451 v 0.79375 0.79375 h 41.53958 41.53958 z M 5.0577164,65.721615 c 0.335508,-0.21529 0.783459,-0.57248 0.995447,-0.79375 l 0.385432,-0.4023 h -1.678396 -1.678397 v 0.79375 0.79375 h 0.68295 c 0.531094,0 0.818587,-0.087 1.292964,-0.39145 z m 8.0782526,-0.4023 v -0.79375 H 10.214744 7.2935184 l -0.551431,0.44719 c -0.303287,0.24595 -0.849087,0.60037 -1.212889,0.78759 l -0.661458,0.3404 4.134114,0.006 4.1341146,0.006 z m 41.010416,0 v -0.79375 H 33.773469 13.400552 v 0.79375 0.79375 h 20.372917 20.372916 z m 40.48125,0 v -0.79375 H 74.519302 54.410969 v 0.79375 0.79375 h 20.108333 20.108333 z m 83.476035,0 v -0.79375 H 158.06148 138.0193 l -0.0212,0.42995 -0.0212,0.42994 -0.0533,-0.42994 -0.0534,-0.42995 H 117.638 97.40576 v 0.39687 c 0,0.21828 -0.05953,0.39688 -0.132291,0.39688 -0.07276,0 -0.132292,-0.1786 -0.132292,-0.39688 v -0.39687 H 96.082844 95.02451 v 0.79375 0.79375 h 41.53958 41.53958 z M 6.8469514,64.051855 c 0.123037,-0.18778 0.256736,-0.54496 0.297108,-0.79375 l 0.0734,-0.45233 h -0.617979 c -0.426722,0 -0.738205,0.0889 -1.006448,0.2872 -0.328375,0.24278 -0.440102,0.26369 -0.722247,0.13513 -0.183578,-0.0836 -0.333778,-0.21289 -0.333778,-0.28721 0,-0.0756 -0.320549,-0.13512 -0.727605,-0.13512 h -0.727604 v 0.79375 0.79375 h 1.770723 c 1.757568,0 1.772384,-0.002 1.994426,-0.34142 z m 6.2890176,-0.45233 v -0.79375 H 10.632686 8.1294044 l -0.162609,0.49609 c -0.08944,0.27285 -0.249727,0.63004 -0.356204,0.79375 l -0.193594,0.29766 h 2.8594856 2.859486 z m -4.7624996,0.008 c 0,-0.35622 0.250261,-0.47571 0.491369,-0.2346 0.241109,0.24111 0.121627,0.49137 -0.234594,0.49137 -0.165978,0 -0.256775,-0.0908 -0.256775,-0.25677 z m 9.6572906,-0.008 v -0.79375 h -2.315104 -2.315104 v 0.79375 0.79375 h 2.315104 2.315104 z m 15.08125,0 v -0.79375 h -7.072028 -7.072026 l -0.336307,0.57386 c -0.645714,1.10183 -1.26102,1.01364 7.072028,1.01364 h 7.408333 z m 21.034375,0 v -0.79375 H 43.76149 33.376594 v 0.79375 0.79375 H 43.76149 54.146385 Z m 4.894792,0 v -0.79375 h -2.315104 -2.315104 v 0.79375 0.79375 h 2.315104 2.315104 z m 15.08125,0 v -0.79375 h -7.072028 -7.072027 l -0.336306,0.57386 c -0.645715,1.10183 -1.26102,1.01364 7.072028,1.01364 h 7.408333 z m 20.505208,0 v -0.79375 H 84.507323 74.38701 v 0.79375 0.79375 h 10.120313 10.120312 z m 2.513542,0 v -0.79375 H 96.082844 95.02451 v 0.79375 0.79375 h 1.058334 1.058333 z m 4.894783,0 v -0.79375 H 99.720863 97.40576 v 0.79375 0.79375 h 2.315103 2.315097 z m 14.81667,0 v -0.79375 h -6.93974 -6.93973 l -0.33631,0.57386 c -0.64535,1.1012 -1.24486,1.01364 6.93974,1.01364 h 7.27604 z m 21.03438,0 v -0.79375 h -10.3849 -10.3849 v 0.79375 0.79375 h 10.3849 10.3849 z m 4.89479,0 v -0.79375 h -2.38125 -2.38125 v 0.79375 0.79375 h 2.38125 2.38125 z m 14.81666,0 v -0.79375 h -6.93973 -6.93974 l -0.3363,0.57386 c -0.64536,1.1012 -1.24486,1.01364 6.93973,1.01364 h 7.27604 z m 20.50521,0 v -0.79375 h -10.12031 -10.12031 v 0.79375 0.79375 h 10.12031 10.12031 z M 4.4658714,62.190555 c 0.04983,-0.26561 0.260234,-0.65256 0.467567,-0.8599 l 0.37697,-0.37697 h -1.114303 -1.114303 v 0.8599 0.85989 h 0.646736 c 0.639464,0 0.647754,-0.005 0.737333,-0.48292 z m 2.716973,0.13953 c 0,-0.67748 -0.646496,-1.3764 -1.273172,-1.3764 -0.111314,0 -0.391286,0.19138 -0.622161,0.42528 -0.38525,0.39031 -0.398012,0.42951 -0.155188,0.47668 0.337025,0.0655 0.727604,0.40897 0.727604,0.6399 0,0.12533 0.195566,0.17793 0.661459,0.17793 0.623864,0 0.661458,-0.0195 0.661458,-0.34339 z m 5.9531246,-0.5165 v -0.8599 H 10.08311 7.0302524 l 0.404636,0.34048 c 0.222549,0.18727 0.474665,0.57422 0.560257,0.8599 l 0.155621,0.51941 h 2.4926016 2.492601 z m -4.6743056,0.24253 c -0.193827,-0.19382 -0.08224,-0.57326 0.168581,-0.57326 0.337685,0 0.467665,0.22773 0.267583,0.46882 -0.174648,0.21043 -0.300126,0.24048 -0.436164,0.10444 z m 9.5690966,-0.24253 v -0.8599 h -2.315104 -2.315104 v 0.8599 0.85989 h 2.315104 2.315104 z m 1.196696,0.16742 c 0.244401,-0.20008 0.655388,-0.7798 0.655388,-0.92446 0,-0.0566 -0.357188,-0.10286 -0.79375,-0.10286 h -0.79375 v 0.86891 0.8689 l 0.363802,-0.27154 c 0.200091,-0.14934 0.455831,-0.34687 0.56831,-0.43895 z m 13.884554,-0.16742 v -0.8599 h -6.482291 c -5.466977,0 -6.482292,0.029 -6.482292,0.18515 0,0.10183 -0.204334,0.48878 -0.454075,0.85989 l -0.454074,0.67475 h 6.936366 6.936366 z m 21.034375,0 v -0.8599 H 43.76149 33.376594 v 0.8599 0.85989 H 43.76149 54.146385 Z m 4.894792,0 v -0.8599 h -2.315104 -2.315104 v 0.8599 0.85989 h 2.315104 2.315104 z m 1.196696,0.16742 c 0.244401,-0.20008 0.655387,-0.7798 0.655387,-0.92446 0,-0.0566 -0.357187,-0.10286 -0.79375,-0.10286 h -0.79375 v 0.86891 0.8689 l 0.363803,-0.27154 c 0.200091,-0.14934 0.45583,-0.34687 0.56831,-0.43895 z m 13.884554,-0.16742 v -0.8599 h -6.482292 c -5.466976,0 -6.482291,0.029 -6.482291,0.18515 0,0.10183 -0.204334,0.48878 -0.454075,0.85989 l -0.454074,0.67475 h 6.936365 6.936367 z m 20.505208,0 v -0.8599 H 84.507323 74.38701 v 0.8599 0.85989 h 10.120313 10.120312 z m 2.513542,0 v -0.8599 H 96.082844 95.02451 v 0.8599 0.85989 h 1.058334 1.058333 z m 4.894783,0 v -0.8599 H 99.720863 97.40576 v 0.8599 0.85989 h 2.315103 2.315097 z m 1.1967,0.16742 c 0.2444,-0.20008 0.65539,-0.7798 0.65539,-0.92446 0,-0.0566 -0.35719,-0.10286 -0.79375,-0.10286 h -0.79375 v 0.86891 0.8689 l 0.3638,-0.27154 c 0.20009,-0.14934 0.45583,-0.34687 0.56831,-0.43895 z m 13.61997,-0.16742 v -0.8599 h -6.35 c -5.35361,0 -6.35,0.029 -6.35,0.18515 0,0.10183 -0.20433,0.48878 -0.45407,0.85989 l -0.45408,0.67475 h 6.80408 6.80407 z m 21.03438,0 v -0.8599 h -10.3849 -10.3849 v 0.8599 0.85989 h 10.3849 10.3849 z m 4.89479,0 v -0.8599 h -2.38125 -2.38125 v 0.8599 0.85989 h 2.38125 2.38125 z m 1.19669,0.16742 c 0.2444,-0.20008 0.65539,-0.7798 0.65539,-0.92446 0,-0.0566 -0.35719,-0.10286 -0.79375,-0.10286 h -0.79375 v 0.86891 0.8689 l 0.3638,-0.27154 c 0.20009,-0.14934 0.45584,-0.34687 0.56831,-0.43895 z m 13.61997,-0.16742 v -0.8599 h -6.35 c -5.3536,0 -6.35,0.029 -6.35,0.18515 0,0.10183 -0.20433,0.48878 -0.45407,0.85989 l -0.45408,0.67475 h 6.80408 6.80407 z m 20.50521,0 v -0.8599 h -10.12031 -10.12031 v 0.8599 0.85989 h 10.12031 10.12031 z M 13.136464,60.523745 c 9.26e-4,-0.53406 0.474509,-1.1301 1.017883,-1.28099 0.657757,-0.18266 1.009001,-0.17752 1.204122,0.0176 0.271994,0.27199 0.175069,0.77132 -0.227949,1.17434 l -0.386698,0.3867 h 1.643469 1.643469 v -0.72761 c 0,-0.6394 -0.03207,-0.7276 -0.264583,-0.7276 -0.14699,0 -0.264583,-0.0882 -0.264583,-0.19844 0,-0.11024 0.117593,-0.19843 0.264583,-0.19843 0.19671,0 0.264583,-0.0882 0.264583,-0.3438 0,-0.72592 1.312323,-1.47108 1.970445,-1.11887 0.368856,0.19741 0.368009,0.81197 -0.0016,1.14451 l -0.280092,0.25201 0.614067,0.0661 c 1.117865,0.12041 0.731364,0.32913 -0.68227,0.36843 l -1.35599,0.0377 v 0.72297 0.72298 h 0.808766 0.808765 l -0.06879,-0.3638 c -0.03784,-0.20009 -0.111068,-0.49775 -0.162736,-0.66146 -0.05535,-0.17538 -0.03858,-0.29766 0.04084,-0.29766 0.149977,0 0.425246,0.69786 0.425246,1.07808 0,0.23493 0.262411,0.24484 6.482291,0.24484 h 6.482292 v -0.7184 c 0,-0.62104 -0.03657,-0.72414 -0.269823,-0.76068 -0.372002,-0.0583 -0.391076,-0.29754 -0.02783,-0.34913 0.21908,-0.0311 0.297656,-0.1306 0.297656,-0.37687 0,-0.71694 1.317693,-1.45901 1.970445,-1.10967 0.36729,0.19657 0.362837,0.76054 -0.0091,1.15648 l -0.287649,0.30619 h 0.618362 c 0.46147,0 0.618372,0.0503 0.618372,0.19843 0,0.16316 -0.235185,0.19844 -1.322917,0.19844 h -1.322916 v 0.72761 0.7276 H 43.76149 54.146385 l 5.3e-4,-0.29766 c 9.26e-4,-0.53405 0.474509,-1.13009 1.017883,-1.28098 0.657757,-0.18266 1.009001,-0.17752 1.204122,0.0176 0.271994,0.27199 0.175069,0.77132 -0.227949,1.17434 l -0.386732,0.3867 h 1.643468 1.64347 v -0.72761 c 0,-0.63941 -0.03207,-0.7276 -0.264583,-0.7276 -0.146991,0 -0.264584,-0.0882 -0.264584,-0.19844 0,-0.11024 0.117593,-0.19844 0.264584,-0.19844 0.19671,0 0.264583,-0.0882 0.264583,-0.34379 0,-0.72592 1.312323,-1.47108 1.970445,-1.11887 0.36729,0.19657 0.362837,0.76054 -0.0091,1.15648 l -0.287646,0.30618 h 0.618374 c 0.46147,0 0.618372,0.0504 0.618372,0.19844 0,0.16316 -0.235186,0.19844 -1.322917,0.19844 h -1.322917 v 0.7276 0.72761 h 0.808766 0.808765 l -0.06879,-0.3638 c -0.03784,-0.2001 -0.111068,-0.49775 -0.162736,-0.66146 -0.05535,-0.17538 -0.03858,-0.29766 0.04084,-0.29766 0.149977,0 0.425246,0.69786 0.425246,1.07807 0,0.23494 0.262411,0.24485 6.482291,0.24485 h 6.482292 v -0.71841 c 0,-0.64429 -0.03071,-0.72276 -0.297656,-0.76067 -0.163711,-0.0233 -0.297656,-0.10181 -0.297656,-0.17457 0,-0.0728 0.133945,-0.15131 0.297656,-0.17456 0.21908,-0.0311 0.297656,-0.1306 0.297656,-0.37687 0,-0.71695 1.317693,-1.45901 1.970445,-1.10967 0.36729,0.19657 0.362837,0.76054 -0.0091,1.15648 l -0.287646,0.30618 h 0.618374 c 0.46147,0 0.618372,0.0504 0.618372,0.19844 0,0.16316 -0.235186,0.19844 -1.322917,0.19844 h -1.322917 v 0.7276 0.72761 h 10.12025 10.120312 V 55.331289 49.841185 H 92.444823 90.26201 v 1.521354 1.521354 h -8.069791 -8.069792 v -1.521354 -1.521354 h -2.639789 -2.639789 l -0.03912,0.871024 -0.03912,0.871023 -2.839802,1.047206 c -1.561891,0.575962 -2.856696,1.047205 -2.877344,1.047205 -0.02065,0 -0.03754,-0.863203 -0.03754,-1.918229 V 49.841185 H 56.130756 49.25159 v 1.521354 1.521354 h -8.069792 -8.069792 v -1.521354 -1.521354 h -2.639788 -2.639789 l -0.03912,0.875328 -0.03912,0.875326 -2.834845,1.042903 c -1.559165,0.573595 -2.853969,1.042901 -2.877344,1.042901 -0.02337,0 -0.0425,-0.863203 -0.0425,-1.918229 V 49.841185 H 14.85575 7.7120014 l -0.0029,0.56224 c -0.0031,0.603812 -0.354014,1.512748 -0.691929,1.792339 -0.11418,0.09447 -0.419691,0.206184 -0.678914,0.24825 -0.412439,0.06693 -0.529592,0.01821 -0.937846,-0.390047 -0.731746,-0.731746 -0.62154,-1.683615 0.194927,-1.683615 0.446374,0 0.661458,0.225765 0.661458,0.694302 0,0.297519 -0.08784,0.413736 -0.417446,0.552326 l -0.417446,0.175523 0.361553,0.236899 c 0.741043,0.48555 1.493711,-0.179969 1.623275,-1.435323 l 0.07771,-0.752894 h -2.201306 -2.201321 v 5.490104 5.490106 h 5.027084 5.0270826 l 5.29e-4,-0.29766 z m 8.196078,-2.02409 c -0.140597,-0.16941 -0.13191,-0.24337 0.04995,-0.42522 0.205334,-0.20534 0.234959,-0.20534 0.440293,0 0.181857,0.18185 0.190544,0.25581 0.04995,0.42522 -0.09361,0.11279 -0.215151,0.20508 -0.270094,0.20508 -0.05494,0 -0.176483,-0.0923 -0.270093,-0.20508 z m 41.010417,0 c -0.140597,-0.16941 -0.131911,-0.24337 0.04995,-0.42522 0.205333,-0.20534 0.234959,-0.20534 0.440293,0 0.181857,0.18185 0.190543,0.25581 0.04995,0.42522 -0.09361,0.11279 -0.215151,0.20508 -0.270093,0.20508 -0.05494,0 -0.176484,-0.0923 -0.270093,-0.20508 z m -41.539901,-1.17697 c 0.192744,-0.23224 1.486658,-0.664259 2.651661,-0.88535 0.487532,-0.09252 1.9197,-0.163189 3.307291,-0.163189 1.387592,0 2.81976,0.07067 3.307292,0.163189 1.140537,0.216449 2.457642,0.65158 2.64099,0.8725 0.08981,0.10821 -0.151975,0.058 -0.618373,-0.12847 -1.224135,-0.489379 -2.631596,-0.652799 -5.528346,-0.6419 -2.815406,0.0106 -4.137106,0.185711 -5.306776,0.70311 -0.425429,0.18819 -0.563693,0.2126 -0.453739,0.0801 z m 41.015849,-0.007 c 0.187957,-0.22647 1.493525,-0.660049 2.646228,-0.878806 1.240551,-0.235428 5.489103,-0.205005 6.81853,0.04883 0.957532,0.182825 2.518468,0.730876 2.404955,0.844386 -0.02474,0.0247 -0.339092,-0.0665 -0.698557,-0.20284 -1.132927,-0.429603 -2.638513,-0.596803 -5.349928,-0.594132 -2.754206,0.0027 -4.436983,0.223999 -5.459227,0.717892 -0.344886,0.16663 -0.464328,0.18797 -0.362001,0.0647 z m -48.153772,-0.047 c 0,-0.0741 0.05425,-0.277398 0.120563,-0.451806 0.06631,-0.174408 0.210728,-0.620718 0.320927,-0.9918 l 0.200363,-0.674224 -0.534043,0.02407 c -0.625989,0.02822 -0.937352,-0.275194 -0.688028,-0.670458 0.204377,-0.324003 0.62136,-0.288503 0.776953,0.06615 0.07182,0.163711 0.198987,0.297656 0.282583,0.297656 0.149944,0 0.460377,-0.564781 0.643615,-1.170956 0.08768,-0.290064 0.06688,-0.305096 -0.308254,-0.222703 -0.73751,0.161984 -1.259037,-0.431619 -0.750217,-0.853901 0.252136,-0.209255 0.602377,-0.07554 0.691132,0.263853 0.08235,0.31491 0.211845,0.334401 0.435031,0.06548 0.09058,-0.109141 0.208415,-0.198437 0.261859,-0.198437 0.158123,0 -1.118335,4.540876 -1.292806,4.599026 -0.08782,0.0293 -0.159678,-0.007 -0.159678,-0.0815 z m 41.010417,0 c 0,-0.0741 0.05425,-0.277398 0.120563,-0.451806 0.06631,-0.174408 0.210727,-0.620718 0.320926,-0.9918 l 0.200364,-0.674224 -0.534043,0.02407 c -0.62599,0.02822 -0.937353,-0.275194 -0.688028,-0.670458 0.204376,-0.324003 0.62136,-0.288503 0.776953,0.06615 0.07182,0.163711 0.198987,0.297656 0.282583,0.297656 0.149943,0 0.460376,-0.564781 0.643615,-1.170956 0.08768,-0.290064 0.06688,-0.305096 -0.308254,-0.222703 -0.73751,0.161984 -1.259037,-0.431619 -0.750217,-0.853901 0.252136,-0.209255 0.602377,-0.07554 0.691131,0.263853 0.08235,0.31491 0.211846,0.334401 0.435032,0.06548 0.09058,-0.109141 0.208415,-0.198437 0.261858,-0.198437 0.158123,0 -1.118334,4.540876 -1.292806,4.599026 -0.08782,0.0293 -0.159677,-0.007 -0.159677,-0.0815 z m 42.465625,2.82464 c 0,-0.69418 -0.0157,-0.72761 -0.341753,-0.72761 -0.465029,0 -0.344251,-0.3116 0.153831,-0.39687 0.212498,-0.0364 0.547257,-0.17533 0.74391,-0.30878 0.205335,-0.13933 0.62737,-0.25197 0.99135,-0.26458 0.54128,-0.0188 0.65298,0.0215 0.76522,0.2757 0.0805,0.18227 0.247478,0.29766 0.430788,0.29766 0.177907,0 0.299367,0.0805 0.299367,0.19844 0,0.13041 -0.13049,0.19843 -0.380687,0.19843 -0.20937,0 -0.462378,0.0985 -0.562238,0.21893 -0.2446,0.29495 -0.94285,0.57482 -1.43408,0.57482 -0.339671,0 -0.401125,0.0507 -0.401125,0.33073 v 0.33073 h 2.315103 2.315097 v -0.7276 c 0,-0.63941 -0.0321,-0.72761 -0.26458,-0.72761 -0.14699,0 -0.26458,-0.0882 -0.26458,-0.19843 0,-0.11025 0.11759,-0.19844 0.26458,-0.19844 0.22931,0 0.26458,-0.0882 0.26458,-0.66146 0,-0.57326 -0.0353,-0.66146 -0.26458,-0.66146 -0.14699,0 -0.26458,-0.0882 -0.26458,-0.19844 0,-0.11237 0.11857,-0.19843 0.27341,-0.19843 0.15037,0 0.46788,-0.14834 0.70558,-0.329634 0.77864,-0.593901 1.79913,-0.554364 1.79913,0.0697 0,0.189064 0.0902,0.259924 0.33073,0.259924 0.20579,0 0.33073,0.075 0.33073,0.19844 0,0.13379 -0.13384,0.19844 -0.41085,0.19844 -0.24895,0 -0.57118,0.1349 -0.8177,0.34234 -0.31769,0.26732 -0.51756,0.33178 -0.91207,0.29416 -0.47568,-0.0454 -0.50521,-0.0267 -0.50521,0.31912 v 0.3673 h 1.32291 c 1.08773,0 1.32292,0.0353 1.32292,0.19843 0,0.16316 -0.23519,0.19844 -1.32292,0.19844 h -1.32291 v 0.72761 0.7276 h 0.80876 0.80877 l -0.0688,-0.3638 c -0.0378,-0.20009 -0.11106,-0.49775 -0.16273,-0.66146 -0.0554,-0.17538 -0.0386,-0.29766 0.0408,-0.29766 0.14998,0 0.42525,0.69786 0.42525,1.07808 0,0.23486 0.25886,0.24484 6.35,0.24484 h 6.35 v -0.7184 c 0,-0.62105 -0.0366,-0.72414 -0.26982,-0.76068 -0.14841,-0.0233 -0.26983,-0.10181 -0.26983,-0.17457 0,-0.0728 0.12142,-0.15131 0.26983,-0.17456 0.22876,-0.0358 0.26982,-0.14012 0.26982,-0.68533 0,-0.56615 -0.0356,-0.64811 -0.29766,-0.68533 -0.37509,-0.0533 -0.33917,-0.29185 0.0531,-0.35244 0.16228,-0.0251 0.48214,-0.18828 0.71082,-0.362703 0.76338,-0.582256 1.78274,-0.535251 1.78274,0.08221 0,0.189063 0.0902,0.259933 0.33073,0.259933 0.20579,0 0.33073,0.075 0.33073,0.19843 0,0.1338 -0.13385,0.19844 -0.41085,0.19844 -0.24895,0 -0.57118,0.13491 -0.8177,0.34234 -0.3177,0.26732 -0.51756,0.33178 -0.91207,0.29416 -0.47568,-0.0454 -0.50522,-0.0267 -0.50522,0.31912 v 0.3673 h 1.32292 c 1.08773,0 1.32292,0.0353 1.32292,0.19843 0,0.16316 -0.23519,0.19844 -1.32292,0.19844 h -1.32292 v 0.72761 0.7276 h 10.3849 10.3849 v -0.7276 c 0,-0.68792 -0.018,-0.72761 -0.33073,-0.72761 -0.2058,0 -0.33073,-0.075 -0.33073,-0.19844 0,-0.13287 0.13288,-0.19843 0.40223,-0.19843 0.22123,0 0.5693,-0.12353 0.77352,-0.27451 0.24024,-0.17762 0.59989,-0.28267 1.01906,-0.29765 0.55296,-0.0198 0.66667,0.0196 0.77688,0.26911 0.071,0.16074 0.24532,0.30957 0.38735,0.33073 0.43164,0.0643 0.41493,0.36919 -0.0202,0.36919 -0.2169,0 -0.49078,0.11425 -0.62232,0.2596 -0.30238,0.33413 -1.04175,0.57699 -1.53584,0.50447 -0.34982,-0.0513 -0.3869,-0.0209 -0.3869,0.31718 v 0.37396 h 2.38125 2.38125 v -0.7184 c 0,-0.64429 -0.0307,-0.72277 -0.29766,-0.76068 -0.36325,-0.0516 -0.34417,-0.29085 0.0278,-0.34913 0.22875,-0.0358 0.26982,-0.14012 0.26982,-0.68533 0,-0.54521 -0.0411,-0.64949 -0.26982,-0.68533 -0.38421,-0.0602 -0.38597,-0.29832 -0.003,-0.35244 0.17757,-0.0251 0.50997,-0.18828 0.73865,-0.362702 0.76338,-0.582256 1.78274,-0.535251 1.78274,0.08221 0,0.189062 0.0902,0.259932 0.33072,0.259932 0.2058,0 0.33073,0.075 0.33073,0.19843 0,0.1338 -0.13384,0.19844 -0.41084,0.19844 -0.24896,0 -0.57118,0.13491 -0.81771,0.34234 -0.31768,0.26732 -0.51755,0.33178 -0.91206,0.29416 -0.47569,-0.0454 -0.50522,-0.0267 -0.50522,0.31912 v 0.3673 h 1.32292 c 1.08773,0 1.32291,0.0353 1.32291,0.19844 0,0.16316 -0.23518,0.19843 -1.32291,0.19843 h -1.32292 v 0.72761 0.7276 h 0.80877 0.80876 l -0.0688,-0.3638 c -0.0378,-0.20009 -0.11107,-0.49775 -0.16273,-0.66146 -0.0554,-0.17538 -0.0386,-0.29765 0.0408,-0.29765 0.14998,0 0.42525,0.69785 0.42525,1.07807 0,0.23486 0.25886,0.24484 6.35,0.24484 h 6.35 v -0.7276 c 0,-0.69418 -0.0157,-0.72761 -0.34174,-0.72761 -0.41444,0 -0.36909,-0.31068 0.0545,-0.373 0.24967,-0.0367 0.28729,-0.1265 0.28729,-0.68533 0,-0.55883 -0.0376,-0.64859 -0.28729,-0.68533 -0.42933,-0.0632 -0.46723,-0.373 -0.0456,-0.373 0.19281,0 0.54505,-0.14834 0.78274,-0.329634 0.77864,-0.593901 1.79914,-0.554364 1.79914,0.0697 0,0.191294 0.0902,0.259924 0.34175,0.259924 0.468,0 0.34257,0.31795 -0.14802,0.37526 -0.20966,0.0245 -0.55814,0.19342 -0.77442,0.37541 -0.30423,0.25598 -0.50762,0.31998 -0.89846,0.28271 -0.47424,-0.0452 -0.50522,-0.0259 -0.50522,0.31433 v 0.36251 l 1.27911,0.0379 c 0.87756,0.026 1.29634,0.0898 1.33395,0.20322 0.0414,0.12499 -0.27093,0.16537 -1.27913,0.16537 h -1.33393 v 0.7276 0.72761 h 10.12031 10.12031 v -5.490107 -5.490104 h -2.24896 -2.24895 v 1.521354 1.521354 h -8.00365 -8.00365 V 51.362108 49.840754 H 145.295 132.99187 v 1.521354 1.521354 h -8.06979 -8.06979 V 51.362543 49.841189 H 105.93853 95.024471 v 5.490104 5.490102 h 1.058333 1.058333 v -0.7276 z m 8.196573,-3.313933 c -0.1406,-0.169409 -0.13192,-0.243365 0.0499,-0.425223 0.20534,-0.205334 0.23496,-0.205334 0.4403,0 0.18185,0.181858 0.19054,0.255814 0.0499,0.425223 -0.0936,0.112793 -0.21515,0.205077 -0.27009,0.205077 -0.0549,0 -0.17648,-0.09228 -0.27009,-0.205077 z m 40.61353,0 c -0.14059,-0.169409 -0.13191,-0.243365 0.0499,-0.425223 0.20533,-0.205334 0.23497,-0.205334 0.4403,0 0.18186,0.181858 0.19054,0.255814 0.05,0.425223 -0.0936,0.112793 -0.21516,0.205077 -0.2701,0.205077 -0.0549,0 -0.17649,-0.09228 -0.2701,-0.205077 z M 97.670344,56.343117 c 0,-0.07409 0.05425,-0.277401 0.120562,-0.45181 0.06631,-0.174408 0.210728,-0.620717 0.320927,-0.991799 l 0.200362,-0.674694 -0.534041,0.02407 c -0.62599,0.02822 -0.937353,-0.275195 -0.688028,-0.670459 0.204376,-0.324003 0.621359,-0.288502 0.776953,0.06615 0.07182,0.163711 0.198986,0.297657 0.282583,0.297657 0.149943,0 0.460373,-0.564781 0.643613,-1.170956 0.0877,-0.290064 0.0669,-0.305097 -0.30825,-0.222704 -0.737513,0.161984 -1.25904,-0.431619 -0.750219,-0.8539 0.252136,-0.209255 0.602379,-0.07554 0.691129,0.263853 0.0824,0.314909 0.21185,0.3344 0.43503,0.06548 0.0906,-0.10914 0.20842,-0.198437 0.26186,-0.198437 0.15812,0 -1.118332,4.540874 -1.292804,4.599031 -0.08782,0.02927 -0.159677,-0.0074 -0.159677,-0.08148 z m 40.745826,0 c 0,-0.07409 0.0542,-0.277401 0.12056,-0.45181 0.0663,-0.174408 0.21073,-0.620717 0.32093,-0.991799 l 0.20036,-0.674694 -0.53404,0.02407 c -0.62598,0.02822 -0.93736,-0.275195 -0.68803,-0.670459 0.20438,-0.324003 0.62136,-0.288502 0.77695,0.06615 0.0718,0.163711 0.199,0.297657 0.28259,0.297657 0.14994,0 0.46038,-0.564781 0.64361,-1.170956 0.0877,-0.290064 0.0669,-0.305097 -0.30825,-0.222704 -0.73751,0.161984 -1.25903,-0.431619 -0.75021,-0.8539 0.25213,-0.209255 0.60237,-0.07554 0.69113,0.263853 0.0823,0.314909 0.21184,0.3344 0.43503,0.06548 0.0906,-0.10914 0.20841,-0.198437 0.26186,-0.198437 0.15812,0 -1.11835,4.540874 -1.29281,4.599031 -0.0878,0.02927 -0.15968,-0.0074 -0.15968,-0.08148 z m -34.61868,-0.871584 c 0.3729,-0.282697 2.1319,-0.70548 3.649,-0.877054 1.85855,-0.210191 6.33024,-0.09382 7.81864,0.203463 1.02004,0.203737 2.45565,0.70149 2.34432,0.812819 -0.0247,0.02474 -0.35247,-0.07185 -0.72828,-0.21465 -1.30208,-0.494751 -3.61499,-0.695167 -7.10614,-0.615752 -3.18729,0.0725 -4.49385,0.230799 -5.5511,0.672546 -0.60908,0.254492 -0.74542,0.260446 -0.42644,0.01863 z m 40.64155,0.07741 c 0.27179,-0.29095 1.73993,-0.689684 3.29749,-0.895573 1.22331,-0.161704 2.25474,-0.193995 4.43798,-0.138938 3.08583,0.07782 4.79092,0.336839 5.76451,0.875693 0.28563,0.158093 0.40028,0.246067 0.25476,0.195497 -2.02567,-0.703927 -3.98566,-0.906526 -7.84461,-0.810863 -2.9975,0.07431 -4.89205,0.324655 -5.73119,0.757328 -0.19077,0.09836 -0.26128,0.105001 -0.17894,0.01686 z M 14.673216,60.221625 c 0.715545,-0.45773 0.851705,-0.74507 0.395019,-0.83362 -0.339619,-0.0658 -1.667683,0.78184 -1.667683,1.06447 0,0.37139 0.462296,0.28754 1.272664,-0.23085 z m 41.010417,0 c 0.715545,-0.45773 0.851704,-0.74507 0.395019,-0.83362 -0.339619,-0.0658 -1.667683,0.78184 -1.667683,1.06447 0,0.37139 0.462296,0.28754 1.272664,-0.23085 z m 42.678042,-0.59036 0.43315,-0.26409 -0.694533,-5.3e-4 c -0.606502,-3.9e-4 -0.694532,0.033 -0.694532,0.26409 0,0.34591 0.389061,0.34611 0.955915,5.3e-4 z m 40.745825,0 0.43315,-0.26409 -0.69453,-5.3e-4 c -0.6065,-3.9e-4 -0.69453,0.033 -0.69453,0.26409 0,0.34591 0.38906,0.34611 0.95591,5.3e-4 z m -39.717365,-0.79839 c 0,-0.25419 -0.41784,-0.29856 -0.83831,-0.089 l -0.41846,0.20853 0.62839,0.008 c 0.34894,0.005 0.62838,-0.0522 0.62838,-0.12798 z m 40.745825,0 c 0,-0.25419 -0.41784,-0.29856 -0.8383,-0.089 l -0.41847,0.20853 0.62839,0.008 c 0.34894,0.005 0.62838,-0.0522 0.62838,-0.12798 z M 24.97291,51.806645 c 2.339153,-0.855803 2.58285,-0.973843 2.58285,-1.251059 v -0.306097 l -1.223697,0.446229 c -4.056379,1.479183 -4.000125,1.454685 -4.044097,1.761205 -0.02325,0.162076 -0.0098,0.294683 0.02991,0.294683 0.0397,0 1.234466,-0.425233 2.655034,-0.944961 z m 41.112798,-0.04825 c 2.243998,-0.817129 2.480469,-0.932414 2.480469,-1.209282 v -0.306044 l -1.091406,0.395493 c -3.955336,1.433301 -4.132458,1.511144 -4.178829,1.836524 -0.031,0.217507 0.0096,0.294248 0.132291,0.250154 0.09735,-0.03498 1.293218,-0.470064 2.657475,-0.966845 z M 37.87451,51.693275 c 0,-0.254207 -0.08819,-0.264583 -2.248958,-0.264583 -2.160763,0 -2.248958,0.01037 -2.248958,0.264583 0,0.254208 0.08819,0.264584 2.248958,0.264584 2.160764,0 2.248958,-0.01037 2.248958,-0.264584 z m 5.55625,0 c 0,-0.255979 -0.08819,-0.264583 -2.711979,-0.264583 -2.623784,0 -2.711979,0.0086 -2.711979,0.264583 0,0.255979 0.08819,0.264584 2.711979,0.264584 2.623785,0 2.711979,-0.0086 2.711979,-0.264584 z m 5.55625,0 c 0,-0.255763 -0.08819,-0.264583 -2.645833,-0.264583 -2.557638,0 -2.645833,0.0088 -2.645833,0.264583 0,0.255764 0.08819,0.264584 2.645833,0.264584 2.557639,0 2.645833,-0.0088 2.645833,-0.264584 z m 29.897917,0 c 0,-0.254207 -0.0882,-0.264583 -2.248958,-0.264583 -2.160764,0 -2.248959,0.01037 -2.248959,0.264583 0,0.254208 0.08819,0.264584 2.248959,0.264584 2.160763,0 2.248958,-0.01037 2.248958,-0.264584 z m 5.55625,0 c 0,-0.255979 -0.08819,-0.264583 -2.711979,-0.264583 -2.623784,0 -2.711979,0.0086 -2.711979,0.264583 0,0.255979 0.08819,0.264584 2.711979,0.264584 2.623784,0 2.711979,-0.0086 2.711979,-0.264584 z m 5.55625,0 c 0,-0.255979 -0.08819,-0.264583 -2.711979,-0.264583 -2.623784,0 -2.711979,0.0086 -2.711979,0.264583 0,0.255979 0.08819,0.264584 2.711979,0.264584 2.623784,0 2.711979,-0.0086 2.711979,-0.264584 z m 31.617703,0 c 0,-0.254207 -0.0882,-0.264583 -2.24896,-0.264583 -2.16076,0 -2.24896,0.01037 -2.24896,0.264583 0,0.254208 0.0882,0.264584 2.24896,0.264584 2.16077,0 2.24896,-0.01037 2.24896,-0.264584 z m 5.55625,0 c 0,-0.255979 -0.0882,-0.264583 -2.71198,-0.264583 -2.62378,0 -2.71198,0.0086 -2.71198,0.264583 0,0.255979 0.0882,0.264584 2.71198,0.264584 2.62379,0 2.71198,-0.0086 2.71198,-0.264584 z m 5.55625,0 c 0,-0.255979 -0.0882,-0.264583 -2.71198,-0.264583 -2.62378,0 -2.71198,0.0086 -2.71198,0.264583 0,0.255979 0.0882,0.264584 2.71198,0.264584 2.62378,0 2.71198,-0.0086 2.71198,-0.264584 z m 29.50104,0 c 0,-0.253893 -0.0882,-0.264583 -2.18281,-0.264583 -2.09461,0 -2.18281,0.01069 -2.18281,0.264583 0,0.253893 0.0882,0.264584 2.18281,0.264584 2.09461,0 2.18281,-0.01069 2.18281,-0.264584 z m 5.68854,0 c 0,-0.255979 -0.0882,-0.264583 -2.71198,-0.264583 -2.62378,0 -2.71197,0.0086 -2.71197,0.264583 0,0.255979 0.0882,0.264584 2.71197,0.264584 2.62378,0 2.71198,-0.0086 2.71198,-0.264584 z m 5.55625,0 c 0,-0.255979 -0.0882,-0.264583 -2.71198,-0.264583 -2.62378,0 -2.71197,0.0086 -2.71197,0.264583 0,0.255979 0.0882,0.264584 2.71197,0.264584 2.62378,0 2.71198,-0.0086 2.71198,-0.264584 z M 24.335396,50.623031 c 1.007216,-0.370351 1.856107,-0.697773 1.886424,-0.727604 0.03032,-0.02983 -0.84777,-0.05424 -1.951302,-0.05424 h -2.006424 v 0.727604 c 0,0.400182 0.054,0.727604 0.12,0.727604 0.066,0 0.944086,-0.303015 1.951302,-0.673366 z m 40.735261,0.08967 c 0.86751,-0.321035 1.726119,-0.644682 1.90802,-0.719218 0.24763,-0.101469 -0.176175,-0.137626 -1.686719,-0.143904 l -2.017448,-0.0084 v 0.727604 c 0,0.400182 0.04924,0.727604 0.109428,0.727604 0.06019,0 0.81921,-0.262665 1.686719,-0.5837 z M 37.87451,50.171918 v -0.330729 h -2.248958 -2.248958 v 0.330729 0.330729 h 2.248958 2.248958 z m 5.55625,0 v -0.330729 h -2.711979 -2.711979 v 0.330729 0.330729 h 2.711979 2.711979 z m 5.55625,0 v -0.330729 h -2.645833 -2.645833 v 0.330729 0.330729 h 2.645833 2.645833 z m 29.897917,0 V 49.841189 H 76.635969 74.38701 v 0.330729 0.330729 h 2.248959 2.248958 z m 5.55625,0 v -0.330729 h -2.711979 -2.711979 v 0.330729 0.330729 h 2.711979 2.711979 z m 5.55625,0 v -0.330729 h -2.711979 -2.711979 v 0.330729 0.330729 h 2.711979 2.711979 z m 31.617703,0 v -0.330729 h -2.24896 -2.24896 v 0.330729 0.330729 h 2.24896 2.24896 z m 5.55625,0 v -0.330729 h -2.71198 -2.71198 v 0.330729 0.330729 h 2.71198 2.71198 z m 5.55625,0 v -0.330729 h -2.71198 -2.71198 v 0.330729 0.330729 h 2.71198 2.71198 z m 29.50104,0 v -0.330729 h -2.18281 -2.18281 v 0.330729 0.330729 h 2.18281 2.18281 z m 5.68854,0 v -0.330729 h -2.71198 -2.71197 v 0.330729 0.330729 h 2.71197 2.71198 z m 5.55625,0 v -0.330729 h -2.71198 -2.71197 v 0.330729 0.330729 h 2.71197 2.71198 z M 5.2419384,49.111262 c -0.31495,-0.3287 -0.572636,-0.685888 -0.572636,-0.79375 0,-0.151501 -0.180567,-0.196115 -0.79375,-0.196115 h -0.79375 v 0.79375 0.79375 h 1.366386 1.366385 z M 21.99951,48.915147 v -0.79375 H 15.477649 8.9557884 l -0.165065,0.456474 c -0.09078,0.251062 -0.345436,0.608249 -0.565892,0.79375 l -0.400829,0.337276 h 7.0877536 7.087754 z m 5.219297,0.640223 c 0.29351,-0.133732 0.336953,-0.236069 0.336953,-0.79375 v -0.640223 h -1.669253 -1.669255 l -0.46584,0.409013 c -0.383953,0.337115 -0.55562,0.400451 -0.97658,0.360307 -0.498779,-0.04757 -0.510738,-0.03856 -0.510738,0.384736 v 0.433444 h 2.30888 c 1.470391,0 2.431247,-0.05575 2.645833,-0.153527 z m 5.893203,-0.640223 v -0.79375 h -2.645833 -2.645833 v 0.79375 0.79375 h 2.645833 2.645833 z m 4.7625,0 v -0.79375 h -2.248958 -2.248958 v 0.79375 0.79375 h 2.248958 2.248958 z m 5.55625,0 v -0.79375 h -1.669253 -1.669255 l -0.468858,0.411663 c -0.409568,0.359606 -0.541426,0.403483 -1.042725,0.34698 l -0.573867,-0.06468 v 0.446771 0.44677 h 2.711979 2.711979 z m 5.55625,0 v -0.79375 h -2.645833 -2.645833 v 0.79375 0.79375 h 2.645833 2.645833 z m 14.022917,0 v -0.79375 H 56.13076 49.251594 v 0.79375 0.79375 h 6.879166 6.879167 z m 5.219297,0.640223 c 0.29351,-0.133732 0.336953,-0.236069 0.336953,-0.79375 v -0.640223 h -1.669253 -1.669255 l -0.46584,0.409013 c -0.383953,0.337115 -0.55562,0.400451 -0.97658,0.360307 -0.498779,-0.04757 -0.510739,-0.03856 -0.510739,0.384736 v 0.433444 h 2.30888 c 1.470392,0 2.431247,-0.05575 2.645834,-0.153527 z m 5.893203,-0.640223 v -0.79375 H 71.476594 68.83076 v 0.79375 0.79375 h 2.645834 2.645833 z m 4.7625,0 v -0.79375 H 76.635969 74.38701 v 0.79375 0.79375 h 2.248959 2.248958 z m 5.55625,0 v -0.79375 h -1.669253 -1.669255 l -0.468858,0.411663 c -0.409568,0.359606 -0.541426,0.403483 -1.042726,0.34698 l -0.573866,-0.06468 v 0.446771 0.44677 h 2.711979 2.711979 z m 5.55625,0 v -0.79375 h -2.711979 -2.711979 v 0.79375 0.79375 h 2.711979 2.711979 z m 4.630208,0 v -0.79375 H 92.444823 90.26201 v 0.79375 0.79375 h 2.182813 2.182812 z m 22.224995,0 v -0.79375 h -4.31509 -4.31508 l -0.45202,0.396875 c -0.68393,0.600497 -1.76573,0.473132 -1.76573,-0.207887 0,-0.160753 -0.8202,-0.188988 -5.49009,-0.188988 h -5.49011 v 0.79375 0.79375 h 10.91406 10.91406 z m 4.7625,0 v -0.79375 h -2.24896 -2.24896 v 0.79375 0.79375 h 2.24896 2.24896 z m 5.55625,0 v -0.79375 h -1.66925 -1.66926 l -0.46886,0.411663 c -0.40956,0.359606 -0.54142,0.403483 -1.04272,0.34698 l -0.57387,-0.06468 v 0.446771 0.44677 h 2.71198 2.71198 z m 5.55625,0 v -0.79375 h -2.71198 -2.71198 v 0.79375 0.79375 h 2.71198 2.71198 z m 24.87083,0 v -0.79375 h -4.31509 -4.31509 l -0.45201,0.396875 c -0.68392,0.600497 -1.76572,0.473132 -1.76572,-0.207887 0,-0.161367 -1.00542,-0.188988 -6.87917,-0.188988 h -6.87917 v 0.79375 0.79375 h 12.30313 12.30312 z m 4.63021,0 v -0.79375 h -2.18281 -2.18281 v 0.79375 0.79375 h 2.18281 2.18281 z m 5.68854,0 v -0.79375 h -1.7354 -1.7354 l -0.46584,0.409013 c -0.38395,0.337115 -0.55561,0.400451 -0.97658,0.360307 -0.49878,-0.04757 -0.51073,-0.03856 -0.51073,0.384736 v 0.433444 h 2.71197 2.71198 z m 5.55625,0 v -0.79375 h -2.71198 -2.71197 v 0.79375 0.79375 h 2.71197 2.71198 z m 4.63021,0 v -0.79375 h -2.24896 -2.24895 v 0.79375 0.79375 h 2.24895 2.24896 z M 7.3151364,49.262413 c 0,-0.172806 -0.03721,-0.500228 -0.08268,-0.727604 -0.07627,-0.381346 -0.124233,-0.413412 -0.618373,-0.413412 h -0.535691 l 0.297593,0.316773 c 0.445355,0.474059 0.105958,0.539833 -0.354635,0.06873 -0.287498,-0.294061 -0.494822,-0.393968 -0.752495,-0.362621 l -0.355663,0.04327 0.310641,0.463021 c 0.363018,0.54109 1.052899,0.925546 1.661357,0.925837 0.36444,1.32e-4 0.429948,-0.04767 0.429948,-0.313988 z m 0.852394,-0.24441 c 0.113266,-0.16171 0.205939,-0.4296 0.205939,-0.595313 0,-0.258119 -0.06872,-0.301293 -0.479557,-0.301293 -0.466549,0 -0.477315,0.01122 -0.396875,0.413412 0.04548,0.227376 0.08268,0.495267 0.08268,0.595312 0,0.282758 0.359221,0.21424 0.587811,-0.112118 z m -3.692256,-1.822647 v -0.79375 h -0.696736 -0.696736 v 0.79375 0.79375 h 0.696736 0.696736 z m 1.170004,0.600768 c -0.106025,-0.276298 0.194439,-1.104523 0.456082,-1.257184 0.172517,-0.100657 0.110231,-0.13018 -0.281256,-0.133311 -0.450257,-0.0036 -0.522891,0.04395 -0.694531,0.454748 -0.105428,0.252325 -0.191687,0.609513 -0.191687,0.79375 0,0.283217 0.06068,0.334979 0.392723,0.334979 0.289801,0 0.373315,-0.05057 0.318669,-0.192982 z m 1.403468,-0.03853 c -0.003,-0.3873 -0.154108,-0.826823 -0.28422,-0.826823 -0.20028,0 -0.772307,0.632447 -0.772307,0.853883 0,0.150331 0.140074,0.204451 0.529167,0.204451 0.416462,0 0.528782,-0.04931 0.52736,-0.231511 z m 1.324723,0.08904 c 0,-0.220334 -0.747678,-0.915866 -0.984532,-0.915866 -0.202448,0 -0.202649,0.237634 -7.54e-4,0.892969 0.06216,0.201787 0.985286,0.22324 0.985286,0.0229 z m 5.4910816,-0.386699 c 0.08781,-0.254661 0.201945,-0.596966 0.253623,-0.760677 l 0.09396,-0.297656 H 11.135758 8.0593844 l 0.35313,0.368588 c 0.194221,0.202722 0.391657,0.561224 0.438746,0.796667 l 0.08562,0.428081 2.3840066,-0.03599 2.384006,-0.03599 z m 8.527321,0.136508 c 0.743983,-0.694984 1.856597,-0.655082 1.856597,0.06658 v 0.326076 h 1.653646 1.653645 v -0.79375 -0.79375 h -6.53905 -6.53905 l -0.207825,0.714899 c -0.114304,0.393191 -0.207825,0.750378 -0.207825,0.79375 0,0.04337 1.779642,0.07886 3.954759,0.07886 h 3.95476 z M 33.11201,47.195352 v -0.79375 h -2.645833 -2.645833 v 0.79375 0.79375 h 2.645833 2.645833 z m 5.154862,0.401091 c 0.743983,-0.694984 1.856597,-0.655082 1.856597,0.06658 v 0.326076 h 1.653646 1.653645 v -0.79375 -0.79375 h -5.027083 -5.027083 v 0.79375 0.79375 h 2.234967 2.234968 z M 48.98701,47.195352 v -0.79375 h -2.645833 -2.645833 v 0.79375 0.79375 h 2.645833 2.645833 z m 5.887936,0.264583 c 0.08783,-0.254661 0.201967,-0.596966 0.253644,-0.760677 l 0.09396,-0.297656 h -2.985478 -2.985477 v 0.796434 0.796434 l 2.731833,-0.03576 2.731832,-0.03576 z m 8.527342,0.136508 c 0.743984,-0.694984 1.856597,-0.655082 1.856597,0.06658 v 0.326076 h 1.653646 1.653646 v -0.79375 -0.79375 h -6.53905 -6.53905 l -0.207825,0.714892 c -0.114304,0.393191 -0.207825,0.750378 -0.207825,0.79375 0,0.04337 1.779642,0.07886 3.954759,0.07886 h 3.95476 z m 10.720139,-0.401091 v -0.79375 H 71.476594 68.83076 v 0.79375 0.79375 h 2.645834 2.645833 z m 5.154861,0.401091 c 0.743984,-0.694984 1.856597,-0.655082 1.856597,0.06658 v 0.326076 h 1.653646 1.653646 v -0.79375 -0.79375 H 79.414094 74.38701 v 0.79375 0.79375 h 2.234968 2.234968 z m 10.720139,-0.401091 v -0.79375 h -2.711979 -2.711979 v 0.79375 0.79375 h 2.711979 2.711979 z m 4.630208,0 v -0.79375 H 92.444823 90.26201 v 0.79375 0.79375 h 2.182813 2.182812 z m 3.242292,0.264583 c 0.406508,-1.180108 0.550218,-1.058333 -1.249001,-1.058333 H 95.02451 v 0.798377 0.798379 l 1.342961,-0.0377 1.342958,-0.0377 z m 8.527153,0.136508 c 0.41776,-0.390254 1.18174,-0.639034 1.45113,-0.472542 0.0879,0.05433 0.14088,-0.06508 0.14088,-0.317617 v -0.404682 h -4.75311 -4.753115 l -0.20782,0.714892 c -0.114305,0.393191 -0.207826,0.750378 -0.207826,0.79375 0,0.04337 1.779644,0.07886 3.954751,0.07886 h 3.95476 z m 10.45555,-0.401091 v -0.79375 h -4.29948 -4.29948 v 0.79375 0.79375 h 4.29948 4.29948 z m 5.15486,0.401091 c 0.74398,-0.694984 1.8566,-0.655082 1.8566,0.06658 v 0.326076 h 1.65364 1.65365 v -0.79375 -0.79375 h -5.02708 -5.02709 v 0.79375 0.79375 h 2.23497 2.23497 z m 10.72014,-0.401091 v -0.79375 h -2.71198 -2.71198 v 0.79375 0.79375 h 2.71198 2.71198 z m 5.88793,0.264583 c 0.0878,-0.254661 0.20197,-0.596966 0.25364,-0.760677 l 0.094,-0.297656 h -2.98548 -2.98548 v 0.796434 0.796434 l 2.73184,-0.03576 2.73184,-0.03576 z m 8.52735,0.136508 c 0.41776,-0.390254 1.18175,-0.639034 1.45113,-0.472542 0.0879,0.05433 0.14088,-0.06508 0.14088,-0.317617 v -0.404682 h -4.75311 -4.75312 l -0.20781,0.714892 c -0.11432,0.393191 -0.20783,0.750378 -0.20783,0.79375 0,0.04337 1.77964,0.07886 3.95475,0.07886 h 3.95477 z m 10.45555,-0.401091 v -0.79375 h -4.29948 -4.29947 v 0.79375 0.79375 h 4.29947 4.29948 z m 5.02258,0.401091 c 0.74398,-0.694984 1.85659,-0.655082 1.85659,0.06658 v 0.326076 h 1.71979 1.71979 v -0.79375 -0.79375 h -5.02708 -5.02708 v 0.79375 0.79375 h 2.16881 2.16883 z m 10.85242,-0.401091 v -0.79375 h -2.71198 -2.71197 v 0.79375 0.79375 h 2.71197 2.71198 z m 4.63021,0 v -0.79375 h -2.24896 -2.24895 v 0.79375 0.79375 h 2.24895 2.24896 z M 5.1639924,45.400148 5.7248274,44.549522 h -1.321512 -1.321513 v 0.859896 0.859896 l 0.760677,-0.0093 0.760677,-0.0093 0.560836,-0.850626 z m 1.43439,0.311893 c -0.04901,-0.3065 -0.121698,-0.589274 -0.161526,-0.628386 -0.07746,-0.07607 -0.968536,0.920082 -0.971836,1.08644 -0.0011,0.05457 0.273532,0.09922 0.610253,0.09922 h 0.61222 z m 7.7687046,0.284424 c 0.06303,-0.241021 0.02715,-0.263141 -0.307541,-0.189631 -0.716989,0.157478 -1.226315,-0.444498 -0.726824,-0.859038 0.252136,-0.209255 0.602377,-0.07554 0.691132,0.263853 0.08507,0.325306 0.377571,0.343099 0.550828,0.03351 0.192487,-0.343956 0.308992,-0.124818 0.152488,0.286818 -0.298615,0.785417 -0.712421,0.73734 6.346299,0.73734 H 27.55576 V 45.409418 44.549522 H 17.090377 6.6249944 l 0.08688,0.346163 c 0.04779,0.19039 0.12222,0.522856 0.165412,0.738814 0.04534,0.226699 0.196396,0.440281 0.357408,0.505348 0.153383,0.06198 1.804865,0.116469 3.6699586,0.121081 3.317556,0.0082 3.392628,0.0025 3.462434,-0.264463 z M 33.11201,45.409418 v -0.859896 h -1.604539 -1.604539 l -0.526384,0.475557 c -0.450148,0.406681 -0.600959,0.468445 -1.041295,0.426452 -0.503572,-0.04802 -0.514909,-0.03956 -0.514909,0.384339 v 0.433444 h 2.645833 2.645833 z m 10.31875,0 v -0.859896 h -5.027083 -5.027083 v 0.859896 0.859896 h 5.027083 5.027083 z m 5.55625,0 v -0.859896 h -1.604539 -1.604539 l -0.526384,0.475557 c -0.450148,0.406681 -0.600959,0.468445 -1.041295,0.426452 -0.503572,-0.04802 -0.514909,-0.03956 -0.514909,0.384339 v 0.433444 h 2.645833 2.645833 z m 6.390494,0.587047 c 0.06303,-0.241021 0.02715,-0.263141 -0.307541,-0.189631 -0.71699,0.157478 -1.226315,-0.444498 -0.726824,-0.859038 0.252136,-0.209255 0.602377,-0.07554 0.691131,0.263853 0.08507,0.325306 0.377571,0.343099 0.550828,0.03351 0.192487,-0.343956 0.308993,-0.124818 0.152489,0.286818 -0.298615,0.785417 -0.712421,0.73734 6.346298,0.73734 h 6.482292 v -0.859899 -0.859896 h -9.657292 -9.657291 v 0.859896 0.859896 h 3.027279 c 2.94659,0 3.02918,-0.0073 3.098631,-0.272849 z m 18.744923,-0.587047 v -0.859896 h -1.604539 -1.604539 l -0.526385,0.475557 c -0.450147,0.406681 -0.600958,0.468445 -1.041294,0.426452 -0.503572,-0.04802 -0.51491,-0.03956 -0.51491,0.384339 v 0.433444 h 2.645834 2.645833 z m 10.31875,0 V 44.549522 H 79.414094 74.38701 v 0.859896 0.859896 h 5.027084 5.027083 z m 5.55625,0 v -0.859896 h -1.604539 -1.604539 l -0.529398,0.47828 c -0.477552,0.43144 -0.586006,0.471897 -1.10744,0.413125 l -0.578042,-0.06515 v 0.446772 0.44677 h 2.711979 2.711979 z m 4.630208,0 V 44.549522 H 92.444823 90.26201 v 0.859896 0.859896 h 2.182813 2.182812 z m 3.74466,0.587047 c 0.063,-0.241021 0.0272,-0.263141 -0.307541,-0.189631 -0.716989,0.157478 -1.226314,-0.444498 -0.726823,-0.859038 0.252136,-0.209255 0.602376,-0.07554 0.691131,0.263853 0.08507,0.325306 0.377573,0.343099 0.550833,0.03351 0.19248,-0.343956 0.30899,-0.124818 0.15248,0.286818 -0.29589,0.778267 -0.54902,0.73734 4.560355,0.73734 h 4.69636 v -0.859899 -0.859896 h -6.48229 -6.48229 v 0.859896 0.859896 h 1.638217 c 1.543498,0 1.642338,-0.01577 1.709568,-0.272849 z m 13.396555,0.06496 c -0.31884,-0.318842 -0.24924,-0.705662 0.20298,-1.128099 l 0.41086,-0.383806 h -2.06451 -2.06451 v 0.859896 0.859896 h 1.86154 c 1.6923,0 1.84263,-0.0189 1.65364,-0.207887 z m 5.08378,-0.652009 V 44.54952 h -1.52135 -1.52136 v 0.449317 c 0,0.348717 -0.1047,0.541242 -0.46762,0.859896 l -0.46763,0.410579 h 1.98898 1.98898 z m 10.31875,0.383806 c 0,-0.362011 0.0985,-0.568056 0.41087,-0.859896 l 0.41086,-0.383806 h -5.43795 -5.43795 v 0.859896 0.859896 h 5.02709 5.02708 z m 5.55625,-0.383806 V 44.54952 h -1.69323 -1.69322 l 0.0513,0.439064 c 0.0432,0.370463 -0.0236,0.504816 -0.42804,0.859896 l -0.47931,0.420832 h 2.12127 2.12127 z m 6.39049,0.587047 c 0.063,-0.241021 0.0272,-0.263141 -0.30753,-0.189631 -0.717,0.157478 -1.22632,-0.444498 -0.72683,-0.859038 0.25214,-0.209255 0.60238,-0.07554 0.69113,0.263853 0.0851,0.325306 0.37758,0.343099 0.55083,0.03351 0.19248,-0.343956 0.30899,-0.124818 0.15249,0.286818 -0.2959,0.778267 -0.54902,0.73734 4.56036,0.73734 h 4.69635 v -0.859897 -0.859896 h -7.87135 -7.87136 v 0.859896 0.859896 h 3.02729 c 2.94658,0 3.02917,-0.0073 3.09862,-0.272849 z m 13.39656,0.06496 c -0.31884,-0.318842 -0.24924,-0.705662 0.20299,-1.128099 l 0.41086,-0.383806 h -2.06451 -2.06451 v 0.859896 0.859896 h 1.86152 c 1.69231,0 1.84264,-0.0189 1.65365,-0.207887 z m 5.08378,-0.652009 v -0.859896 h -1.52135 -1.52135 v 0.449317 c 0,0.348717 -0.1047,0.541242 -0.46763,0.859896 l -0.46762,0.410579 h 1.98898 1.98897 z m 10.31875,0.383806 c 0,-0.362011 0.0985,-0.568056 0.41088,-0.859896 l 0.41085,-0.383806 h -5.43794 -5.43795 v 0.859896 0.859896 h 5.02708 5.02708 z m 5.55625,-0.383806 v -0.859896 h -1.69322 -1.69323 l 0.0513,0.439064 c 0.0433,0.370463 -0.0236,0.504816 -0.42804,0.859896 l -0.47931,0.420832 h 2.12127 2.12127 z m 4.63021,0 v -0.859896 h -2.24896 -2.24895 v 0.859896 0.859896 h 2.24895 2.24896 z M 6.0622464,44.278659 c 0.0471,-0.07621 0.01491,-0.433401 -0.07153,-0.79375 l -0.157176,-0.655178 h -1.375867 -1.375868 v 0.79375 0.79375 h 1.447401 c 0.86596,0 1.481805,-0.05567 1.533043,-0.138572 z M 28.005583,44.0876 c 0.778643,-0.593901 1.799136,-0.554365 1.799136,0.0697 0,0.244515 0.09806,0.25993 1.653646,0.25993 H 33.11201 V 43.62348 42.82973 H 20.498019 7.8840264 l -0.471123,0.79375 -0.471123,0.79375 H 17.257598 27.573413 Z m 15.875,0 c 0.778643,-0.593901 1.799136,-0.554365 1.799136,0.0697 0,0.244515 0.09806,0.25993 1.653646,0.25993 h 1.653645 v -0.79375 -0.79375 h -6.763914 -6.763914 l -0.526384,0.475556 c -0.450148,0.406681 -0.600959,0.468445 -1.041295,0.426452 -0.486504,-0.0464 -0.514909,-0.02884 -0.514909,0.318193 v 0.367299 h 5.03591 5.035909 z m 25.135416,0 c 0.778644,-0.593901 1.799136,-0.554365 1.799136,0.0697 0,0.244515 0.09807,0.25993 1.653646,0.25993 h 1.653646 V 43.62348 42.82973 H 62.728305 51.334182 l -0.526384,0.475556 c -0.450148,0.406681 -0.600959,0.468445 -1.041295,0.426452 -0.486504,-0.0464 -0.514909,-0.02884 -0.514909,0.318193 v 0.367299 h 9.666118 9.666118 z m 15.875,0 c 0.778644,-0.593901 1.799136,-0.554365 1.799136,0.0697 0,0.244515 0.09807,0.25993 1.653646,0.25993 h 1.653646 v -0.79375 -0.79375 h -6.763914 -6.763914 l -0.526385,0.475556 c -0.450147,0.406681 -0.600958,0.468445 -1.041294,0.426452 -0.486504,-0.0464 -0.51491,-0.02884 -0.51491,0.318193 v 0.367299 h 5.03591 5.03591 z m 9.736636,-0.464119 v -0.79375 h -1.141518 c -1.124508,0 -1.149362,0.0071 -1.667903,0.475556 -0.450147,0.406681 -0.600958,0.468445 -1.041294,0.426452 -0.486504,-0.0464 -0.51491,-0.02884 -0.51491,0.318193 v 0.367299 h 2.182813 2.182812 z m 13.361455,0 v -0.79375 h -6.48229 -6.48229 v 0.79375 0.79375 h 6.48229 6.48229 z m 5.68854,0 v -0.79375 h -2.71198 -2.71198 v 0.79375 0.79375 h 2.71198 2.71198 z m 3.175,0.383806 c 0,-0.288015 0.1222,-0.524099 0.41087,-0.79375 l 0.41086,-0.383806 h -1.93222 -1.93222 v 0.79375 0.79375 h 1.52136 1.52135 z m 15.875,0 c 0,-0.288015 0.1222,-0.524099 0.41087,-0.79375 l 0.41086,-0.383806 h -7.26712 -7.26712 l 0.0595,0.405687 c 0.046,0.313407 -0.025,0.493957 -0.31224,0.79375 l -0.37179,0.388063 h 7.1685 7.1685 z m 16.00729,-0.383806 v -0.79375 h -6.9224 -6.9224 l 0.0595,0.405687 c 0.046,0.313407 -0.025,0.493957 -0.31225,0.79375 l -0.37179,0.388063 h 7.23464 7.23465 z m 5.55625,0 v -0.79375 h -2.64583 -2.64583 v 0.79375 0.79375 h 2.64583 2.64583 z m 3.30729,0.383806 c 0,-0.288015 0.1222,-0.524099 0.41088,-0.79375 l 0.41085,-0.383806 h -1.93221 -1.93222 v 0.79375 0.79375 h 1.52135 1.52135 z m 15.875,0 c 0,-0.288015 0.1222,-0.524099 0.41088,-0.79375 l 0.41085,-0.383806 h -7.26712 -7.26711 l 0.0595,0.405687 c 0.046,0.313407 -0.025,0.493957 -0.31225,0.79375 l -0.37179,0.388063 h 7.1685 7.1685 z m 4.63021,-0.383806 v -0.79375 h -1.23386 -1.23385 l 0.0595,0.405687 c 0.046,0.313407 -0.025,0.493957 -0.31225,0.79375 l -0.37179,0.388063 h 1.54611 1.5461 z M 7.0498954,42.928949 c 3.62e-4,-0.05457 -0.207702,-0.09922 -0.462364,-0.09922 -0.50363,0 -0.534795,0.06034 -0.320095,0.619773 l 0.142925,0.372416 0.319439,-0.396875 c 0.175691,-0.218281 0.319734,-0.441523 0.320095,-0.496094 z m 0.277047,-0.747916 c 0.150124,-0.501069 0.07248,-1.472313 -0.11702,-1.463762 -0.375646,0.01695 -1.084178,1.072561 -1.084917,1.616366 -4.5e-4,0.33571 0.03996,0.363802 0.523362,0.363802 0.49439,0 0.532559,-0.02905 0.678575,-0.516406 z M 113.67763,42.102123 c 0,-0.389994 -0.057,-0.59406 -0.16536,-0.59168 -0.091,0.002 -1.1774,0.264477 -2.41433,0.583287 l -2.24896,0.579656 2.41433,0.01203 2.41432,0.01202 z m 40.61354,0 c 0,-0.327422 -0.0447,-0.593678 -0.0992,-0.59168 -0.0546,0.002 -1.11125,0.264477 -2.34817,0.583287 l -2.24896,0.579656 2.34818,0.01203 2.34817,0.01202 v -0.595308 z m -40.61354,-1.750297 c 0,-0.165124 -0.0324,-0.300224 -0.0721,-0.300224 -0.0678,0 -3.77544,0.918211 -4.85576,1.202545 -0.3941,0.103725 -0.4961,0.19399 -0.4961,0.439049 v 0.308479 l 2.71198,-0.674813 c 2.53287,-0.630245 2.71198,-0.694641 2.71198,-0.975036 z m 40.61354,0.0051 c 0,-0.245933 -0.0553,-0.306627 -0.23151,-0.253975 -0.12733,0.03805 -1.09471,0.283307 -2.14974,0.54501 -3.11002,0.771454 -2.91041,0.699686 -2.91041,1.046434 v 0.309684 l 2.64583,-0.661997 c 2.53684,-0.634724 2.64583,-0.675309 2.64583,-0.985156 z M 1.3361584,54.471504 c 0.315305,-0.643284 0.355135,-0.87299 0.344082,-1.984375 -0.0079,-0.796243 -0.147107,-1.932516 -0.379785,-3.100414 -0.30650107,-1.53844 -0.35707307,-2.074833 -0.30558107,-3.241145 0.03952,-0.895252 0.14257207,-1.587814 0.28668707,-1.926777 0.285714,-0.672006 0.869114,-1.521354 1.044987,-1.521354 0.07414,0 0.04322,0.10418 -0.06872,0.23151 -0.111941,0.127331 -0.339389,0.499401 -0.505442,0.826823 -0.479749,0.945968 -0.492563,2.203026 -0.04585,4.497917 0.628386,3.228193 0.465266,5.499305 -0.477069,6.642232 -0.174405,0.211531 -0.142176,0.08333 0.106695,-0.424417 z m 0.687311,-13.743786 c 0.459706,-0.126853 0.541252,-0.763521 0.117855,-0.920145 l -0.296782,-0.109788 0.287901,-0.07529 c 0.388836,-0.101683 0.382421,-0.599758 -0.0098,-0.757394 -0.163711,-0.0658 -0.219329,-0.123416 -0.123595,-0.128028 0.506223,-0.02439 0.9271,0.620638 0.555013,0.850601 -0.08049,0.04975 -0.05151,0.201897 0.07534,0.39549 0.191222,0.291841 0.186322,0.334476 -0.06762,0.588415 -0.150576,0.150575 -0.407721,0.26784 -0.571431,0.260588 -0.282362,-0.01252 -0.280662,-0.01788 0.03307,-0.104451 z m -0.529167,-0.337575 c 0,-0.113435 0.05953,-0.206246 0.132292,-0.206246 0.07276,0 0.132292,0.05602 0.132292,0.124484 0,0.06847 -0.05953,0.161277 -0.132292,0.206246 -0.07276,0.04497 -0.132292,-0.01105 -0.132292,-0.124484 z m 0.08402,-1.103372 c -0.03661,-0.05923 -0.01924,-0.184257 0.0386,-0.277834 0.08214,-0.132902 0.122395,-0.125207 0.183931,0.03515 0.08325,0.216947 -0.10891,0.426513 -0.222525,0.242681 z m 0.270826,-9.388551 c -0.620816,-0.898959 -0.789338,-1.481309 -0.85427007,-2.952037 -0.05149,-1.166312 -9.26e-4,-1.702704 0.30558107,-3.241145 0.232678,-1.167898 0.371866,-2.304171 0.379785,-3.100414 0.01105,-1.111385 -0.02878,-1.341091 -0.344082,-1.984375 -0.248871,-0.507746 -0.2811,-0.635947 -0.106694,-0.424417 0.942335,1.142927 1.105454,3.414039 0.477069,6.642232 -0.446714,2.294891 -0.4339,3.551949 0.04585,4.497917 0.166052,0.327422 0.393501,0.699492 0.505441,0.826823 0.11194,0.12733 0.142866,0.23151 0.06872,0.23151 -0.07414,0 -0.288974,-0.223242 -0.477404,-0.496094 z M 2.9495114,17.628168 V 4.9943131 h 1.455208 1.455208 v -0.785138 c 0,-0.431825 0.06332,-0.952724 0.140708,-1.157552 0.138633,-0.366922 0.752658,-1.1000181 0.921351,-1.1000181 0.253951,0 0.828001,1.4164631 0.890723,2.1978501 l 0.06782,0.844858 H 18.379605 28.87868 v -1.058333 c 0,-0.582083 0.02279,-1.058333 0.05066,-1.058333 0.02786,0 1.203601,-0.297163 2.61276,-0.660362 1.409158,-0.3631991 2.636519,-0.6608561 2.72747,-0.6614591 0.123867,-8.21e-4 0.165364,0.430472 0.165364,1.7186961 v 1.719791 h 16.933329 16.933334 v -1.039657 -1.039657 l 2.624184,-0.680135 C 72.369083,1.86079 73.619239,1.55473 73.703906,1.55473 c 0.109165,0 0.153941,0.500218 0.153941,1.7197921 v 1.719791 h 22.277154 22.277159 l 0.42034,-0.392658 c 0.74398,-0.694985 1.8566,-0.655083 1.8566,0.06658 v 0.326075 h 6.60059 6.6006 l 0.42034,-0.392659 c 0.74398,-0.694984 1.85659,-0.655082 1.85659,0.06658 v 0.326075 h 11.03236 11.03237 l 0.42035,-0.392658 c 0.74398,-0.694985 1.85659,-0.655083 1.85659,0.06658 v 0.326074 h 6.53444 6.53446 l 0.42034,-0.392658 c 0.74398,-0.694985 1.85659,-0.655083 1.85659,0.06658 0,0.324834 0.005,0.326075 1.32292,0.326075 h 1.32292 V 17.628168 30.262022 H 90.725031 2.9495114 Z M 96.61201,29.335981 v -0.79375 H 49.846906 3.0818024 v 0.79375 0.79375 H 49.846906 96.61201 Z m 81.49166,0 v -0.79375 H 137.62242 97.141177 v 0.79375 0.79375 h 40.481243 40.48125 z M 5.0577164,28.018493 c 0.335508,-0.215294 0.783459,-0.572481 0.995447,-0.79375 l 0.385432,-0.402304 h -1.678396 -1.678397 v 0.79375 0.79375 h 0.68295 c 0.531094,0 0.818587,-0.08704 1.292964,-0.391446 z m 7.2393816,0.119765 c -0.189963,-0.149423 -0.415773,-0.506611 -0.501802,-0.79375 L 11.63888,26.822439 H 9.4661994 7.2935184 l -0.551431,0.44719 c -0.303287,0.245955 -0.849087,0.60037 -1.212889,0.78759 l -0.661458,0.340401 3.887372,0.0062 3.8873716,0.0062 -0.345386,-0.271681 z m 1.63919,0.06985 c 0.214669,-0.111008 0.390306,-0.248459 0.390306,-0.305444 0,-0.172441 0.388138,-0.629097 0.392668,-0.461986 0.0023,0.08537 -0.149913,0.338377 -0.338282,0.562239 l -0.34249,0.407026 H 55.325251 96.61201 v -0.79375 -0.79375 H 77.231281 57.850552 l -0.02117,0.429948 -0.02117,0.429948 -0.05336,-0.429948 -0.05336,-0.429948 H 38.064566 18.427635 v 0.396875 c 0,0.218281 -0.05953,0.396875 -0.132291,0.396875 -0.07276,0 -0.132292,-0.178594 -0.132292,-0.396875 v -0.396875 h -2.795329 -2.79533 l 0.06992,0.620341 c 0.102594,0.910204 0.527652,1.161605 1.293975,0.765324 z M 178.10367,27.616189 v -0.79375 h -19.51302 -19.51302 v 0.396875 c 0,0.218281 -0.0595,0.396875 -0.13229,0.396875 -0.0728,0 -0.13229,-0.178594 -0.13229,-0.396875 V 26.822439 H 119.10159 99.390135 v 0.396875 c 0,0.218281 -0.0595,0.396875 -0.13229,0.396875 -0.0728,0 -0.13229,-0.178594 -0.13229,-0.396875 v -0.396875 h -0.99219 -0.992188 v 0.79375 0.79375 h 40.481243 40.48125 z M 6.8469514,26.348733 c 0.123037,-0.187779 0.256736,-0.544966 0.297108,-0.79375 l 0.0734,-0.452336 h -0.617979 c -0.426722,0 -0.738205,0.08889 -1.006448,0.287208 -0.328375,0.242778 -0.440102,0.263681 -0.722247,0.135128 -0.183578,-0.08364 -0.333778,-0.212887 -0.333778,-0.287208 0,-0.0756 -0.320549,-0.135128 -0.727605,-0.135128 h -0.727604 v 0.79375 0.79375 h 1.770723 c 1.757568,0 1.772384,-0.0025 1.994426,-0.341414 z m 4.8823376,-0.06659 c 0.04488,-0.224404 0.205204,-0.581591 0.356275,-0.79375 l 0.274672,-0.385742 H 10.24482 8.1294044 l -0.162609,0.496094 c -0.08944,0.272852 -0.249727,0.630039 -0.356204,0.79375 l -0.193594,0.297656 H 9.5323423 11.647688 Z M 8.3734694,25.904209 c 0,-0.35622 0.250261,-0.475702 0.491369,-0.234594 0.241109,0.241108 0.121627,0.49137 -0.234594,0.49137 -0.165978,0 -0.256775,-0.0908 -0.256775,-0.256776 z m 9.7895826,-0.01035 v -0.796286 l -2.629758,0.01386 -2.629758,0.01386 -0.148367,0.325629 c -0.0816,0.179098 -0.148367,0.531189 -0.148367,0.782427 v 0.456796 h 2.778125 2.778125 z m -4.339167,0.505246 c -0.248602,-0.248603 -0.187847,-0.561986 0.169122,-0.872367 0.319049,-0.277409 0.33151,-0.278286 0.463021,-0.03255 0.201948,0.377342 0.163137,0.892332 -0.07411,0.983371 -0.295362,0.113341 -0.377836,0.101747 -0.558034,-0.07845 z m 9.233959,-0.502709 v -0.79375 H 20.74274 18.427635 v 0.79375 0.79375 h 2.315105 2.315104 z m 14.2875,0 v -0.79375 h -6.741299 -6.741298 l -0.336306,0.573863 c -0.644774,1.100224 -1.220624,1.013637 6.741299,1.013637 h 7.077604 z m 20.372916,0 v -0.79375 H 47.597948 37.477635 v 0.79375 0.79375 H 47.597948 57.71826 Z m 4.7625,0 v -0.79375 h -2.315104 -2.315104 v 0.79375 0.79375 h 2.315104 2.315104 z m 14.2875,0 v -0.79375 h -6.675153 -6.675151 l -0.336307,0.573863 c -0.644575,1.099885 -1.212546,1.013637 6.675153,1.013637 h 7.011458 z m 19.84375,0 v -0.79375 h -9.789583 -9.789583 v 0.79375 0.79375 h 9.789583 9.789583 z m 2.513545,0 v -0.79375 h -0.99219 -0.992188 v 0.79375 0.79375 h 0.992188 0.99219 z m 4.762495,0 v -0.79375 h -2.24896 -2.248955 v 0.79375 0.79375 h 2.248955 2.24896 z m 14.55208,0 v -0.79375 h -6.80744 -6.80745 l -0.3363,0.573863 c -0.64497,1.100556 -1.22871,1.013637 6.80744,1.013637 h 7.14375 z m 20.37292,0 v -0.79375 h -10.05417 -10.05417 v 0.79375 0.79375 h 10.05417 10.05417 z m 4.89479,0 v -0.79375 h -2.31511 -2.3151 v 0.79375 0.79375 h 2.3151 2.31511 z m 14.55208,0 v -0.79375 h -6.87358 -6.8736 l -0.3363,0.573863 c -0.64516,1.100883 -1.23678,1.013637 6.87359,1.013637 h 7.20989 z m 19.84375,0 v -0.79375 h -9.85573 -9.85573 v 0.79375 0.79375 h 9.85573 9.85573 z M 4.4658714,24.48743 c 0.04983,-0.26561 0.260234,-0.652563 0.467567,-0.859895 l 0.37697,-0.376971 h -1.114303 -1.114303 v 0.859896 0.859896 h 0.646736 c 0.639464,0 0.647754,-0.0054 0.737333,-0.482926 z m 2.716973,0.139535 c 0,-0.677487 -0.646496,-1.376401 -1.273172,-1.376401 -0.111314,0 -0.391286,0.191376 -0.622161,0.42528 -0.38525,0.390306 -0.398012,0.429507 -0.155188,0.476678 0.337025,0.06547 0.727604,0.408971 0.727604,0.6399 0,0.125327 0.195566,0.177934 0.661459,0.177934 0.623864,0 0.661458,-0.01952 0.661458,-0.343391 z M 18.163052,24.103699 V 23.250564 H 12.596651 7.0302524 l 0.404636,0.340479 c 0.222549,0.187263 0.473996,0.571982 0.558769,0.85493 l 0.154133,0.514452 5.0076306,-0.0018 5.007631,-0.0018 V 24.10369 Z m -9.7013886,0.249295 c -0.193827,-0.193827 -0.08224,-0.573263 0.168581,-0.573263 0.337685,0 0.467665,0.227731 0.267583,0.468815 -0.174648,0.210438 -0.300126,0.240486 -0.436164,0.104448 z M 23.057844,24.11046 V 23.250564 H 20.74274 18.427635 v 0.859896 0.859896 h 2.315105 2.315104 z m 1.064404,0.167418 c 0.244401,-0.200074 0.655387,-0.779793 0.655387,-0.924458 0,-0.05657 -0.357187,-0.102856 -0.79375,-0.102856 h -0.79375 v 0.868904 0.868905 l 0.363803,-0.271538 c 0.200091,-0.149347 0.45583,-0.346877 0.56831,-0.438957 z M 37.345344,24.11046 v -0.859896 h -6.151563 c -5.18355,0 -6.151562,0.02914 -6.151562,0.185144 0,0.101829 -0.204334,0.488782 -0.454075,0.859896 l -0.454074,0.674752 h 6.605636 6.605638 z m 20.372916,0 V 23.250564 H 47.597948 37.477635 v 0.859896 0.859896 H 47.597948 57.71826 Z m 4.7625,0 v -0.859896 h -2.315104 -2.315104 v 0.859896 0.859896 h 2.315104 2.315104 z m 1.196696,0.167418 c 0.244401,-0.200074 0.655388,-0.779793 0.655388,-0.924458 0,-0.05657 -0.357188,-0.102856 -0.79375,-0.102856 h -0.79375 v 0.868904 0.868905 l 0.363802,-0.271538 c 0.200091,-0.149347 0.455831,-0.346877 0.56831,-0.438957 z M 76.76826,24.11046 v -0.859896 h -6.085416 c -5.126865,0 -6.085417,0.02916 -6.085417,0.185144 0,0.101829 -0.204334,0.488782 -0.454075,0.859896 l -0.454074,0.674752 h 6.539491 6.539491 z m 19.84375,0 v -0.859896 h -9.789583 -9.789583 v 0.859896 0.859896 h 9.789583 9.789583 z m 2.513545,0 v -0.859896 h -0.99219 -0.992188 v 0.859896 0.859896 h 0.992188 0.99219 z m 4.762495,0 v -0.859896 h -2.24896 -2.248955 v 0.859896 0.859896 h 2.248955 2.24896 z m 1.19669,0.167418 c 0.2444,-0.200074 0.65539,-0.779793 0.65539,-0.924458 0,-0.05657 -0.35719,-0.102856 -0.79375,-0.102856 h -0.79375 v 0.868904 0.868905 l 0.3638,-0.271538 c 0.20009,-0.149347 0.45583,-0.346877 0.56831,-0.438957 z m 13.35539,-0.167418 v -0.859896 h -6.21771 c -5.24023,0 -6.21771,0.02911 -6.21771,0.185144 0,0.101829 -0.20433,0.488782 -0.45407,0.859896 l -0.45408,0.674752 h 6.67179 6.67178 z m 20.37292,0 v -0.859896 h -10.05417 -10.05417 v 0.859896 0.859896 h 10.05417 10.05417 z m 4.89479,0 v -0.859896 h -2.31511 -2.3151 v 0.859896 0.859896 h 2.3151 2.31511 z m 1.0644,0.167418 c 0.2444,-0.200074 0.65539,-0.779793 0.65539,-0.924458 0,-0.05657 -0.35719,-0.102856 -0.79375,-0.102856 h -0.79375 v 0.868904 0.868905 l 0.3638,-0.271538 c 0.20009,-0.149347 0.45584,-0.346877 0.56831,-0.438957 z m 13.48768,-0.167418 v -0.859896 h -6.28385 c -5.29692,0 -6.28386,0.02908 -6.28386,0.185144 0,0.101829 -0.20433,0.488782 -0.45407,0.859896 l -0.45408,0.674752 h 6.73793 6.73793 z m 19.84375,0 v -0.859896 h -9.85573 -9.85573 v 0.859896 0.859896 h 9.85573 9.85573 z M 18.163052,22.399869 c 0,-0.621042 -0.03657,-0.724133 -0.269823,-0.760677 -0.392608,-0.06151 -0.330206,-0.296021 0.09925,-0.373003 0.202954,-0.03638 0.529905,-0.175329 0.726558,-0.308774 0.205335,-0.139339 0.627366,-0.251976 0.991347,-0.264583 0.53759,-0.01862 0.653356,0.02231 0.762639,0.269691 0.07086,0.160406 0.266568,0.309234 0.434901,0.330729 0.426224,0.05443 0.383474,0.294479 -0.06186,0.347333 -0.202353,0.02402 -0.486977,0.153996 -0.632498,0.288843 -0.339065,0.314197 -0.904057,0.527386 -1.397675,0.527386 -0.325952,0 -0.388263,0.05308 -0.388263,0.330729 v 0.33073 h 2.315105 2.315104 v -0.727605 c 0,-0.687916 -0.01804,-0.727604 -0.330729,-0.727604 -0.205788,0 -0.33073,-0.07497 -0.33073,-0.198437 0,-0.123472 0.124942,-0.198438 0.33073,-0.198438 0.308058,0 0.330729,-0.04471 0.330729,-0.652257 0,-0.575695 -0.03494,-0.65722 -0.297656,-0.694531 -0.444076,-0.06307 -0.371842,-0.430714 0.09505,-0.483799 0.215991,-0.02456 0.553286,-0.158988 0.749544,-0.298737 0.662987,-0.472088 1.702016,-0.440291 1.702016,0.05209 0,0.08933 0.133945,0.221178 0.297656,0.293001 0.390771,0.171441 0.331488,0.383901 -0.122687,0.439694 -0.199333,0.02449 -0.540749,0.194572 -0.758699,0.377965 -0.327676,0.275721 -0.494663,0.322355 -0.964606,0.269386 -0.551297,-0.06214 -0.568331,-0.05279 -0.568331,0.311937 v 0.375997 l 1.35599,0.0377 c 0.790665,0.02198 1.35599,0.09285 1.35599,0.169992 0,0.07714 -0.565325,0.148009 -1.35599,0.169992 l -1.35599,0.0377 v 0.722975 0.722977 h 0.808766 0.808765 l -0.06879,-0.363803 c -0.03784,-0.200091 -0.111068,-0.497747 -0.162736,-0.661458 -0.05535,-0.175379 -0.03858,-0.297656 0.04084,-0.297656 0.149977,0 0.425246,0.697856 0.425246,1.078074 0,0.234751 0.253522,0.244843 6.151562,0.244843 h 6.151563 v -0.727603 c 0,-0.694175 -0.0157,-0.727604 -0.341753,-0.727604 -0.414433,0 -0.369073,-0.310683 0.05446,-0.373003 0.249665,-0.03674 0.287294,-0.126501 0.287294,-0.68533 0,-0.566153 -0.0356,-0.648112 -0.297656,-0.68533 -0.444076,-0.06307 -0.371842,-0.430714 0.09505,-0.483799 0.215991,-0.02456 0.553286,-0.158988 0.749544,-0.298737 0.678424,-0.48308 1.702016,-0.438423 1.702016,0.07426 0,0.10152 0.133945,0.203606 0.297656,0.226856 0.443293,0.06296 0.372032,0.430689 -0.09373,0.48367 -0.215261,0.02449 -0.569709,0.194572 -0.787659,0.377965 -0.327676,0.275721 -0.494663,0.322355 -0.964606,0.269386 -0.551297,-0.06214 -0.568331,-0.05279 -0.568331,0.311937 v 0.375997 l 1.35599,0.0377 c 0.790665,0.02198 1.35599,0.09285 1.35599,0.169992 0,0.07714 -0.565325,0.148009 -1.35599,0.169992 l -1.35599,0.0377 v 0.722975 0.722977 H 47.597948 57.71826 v -0.727604 c 0,-0.687916 -0.01804,-0.727604 -0.330729,-0.727604 -0.205787,0 -0.330729,-0.07497 -0.330729,-0.198437 0,-0.132879 0.132887,-0.198438 0.402232,-0.198438 0.221227,0 0.56931,-0.123526 0.773517,-0.274504 0.240255,-0.177626 0.599896,-0.282674 1.019064,-0.297656 0.552966,-0.01976 0.666674,0.01962 0.776884,0.269109 0.07101,0.160744 0.245318,0.309572 0.387353,0.330729 0.431641,0.0643 0.414934,0.369197 -0.02023,0.369197 -0.21691,0 -0.490788,0.114247 -0.622334,0.259603 -0.302381,0.334127 -1.041745,0.576982 -1.535834,0.504465 -0.349821,-0.05134 -0.386902,-0.02095 -0.386902,0.317177 v 0.373964 h 2.315104 2.315104 v -0.718404 c 0,-0.644291 -0.03071,-0.722763 -0.297656,-0.760677 -0.163711,-0.02325 -0.297656,-0.101805 -0.297656,-0.174565 0,-0.07276 0.133945,-0.151316 0.297656,-0.174566 0.262059,-0.03722 0.297656,-0.119177 0.297656,-0.68533 0,-0.566153 -0.0356,-0.648112 -0.297656,-0.68533 -0.444075,-0.06307 -0.371841,-0.430714 0.09505,-0.483799 0.215992,-0.02456 0.553287,-0.158988 0.749545,-0.298737 0.678424,-0.48308 1.702016,-0.438423 1.702016,0.07426 0,0.10152 0.133945,0.203606 0.297656,0.226856 0.443292,0.06296 0.372032,0.430689 -0.09373,0.48367 -0.215261,0.02449 -0.568344,0.193424 -0.784627,0.375413 -0.304221,0.255986 -0.507613,0.319986 -0.898461,0.282713 -0.474235,-0.04523 -0.505216,-0.02595 -0.505216,0.314326 v 0.362509 l 1.27912,0.03786 c 0.877545,0.02597 1.296331,0.08978 1.333941,0.203228 0.04143,0.124982 -0.270925,0.165364 -1.279121,0.165364 h -1.33394 v 0.727604 0.727605 h 0.808765 0.808765 l -0.06879,-0.363803 c -0.03784,-0.200091 -0.111068,-0.497747 -0.162736,-0.661458 -0.05535,-0.175379 -0.03858,-0.297656 0.04084,-0.297656 0.149978,0 0.425246,0.697856 0.425246,1.078074 0,0.234714 0.251745,0.244843 6.085417,0.244843 h 6.085416 v -0.718404 c 0,-0.644291 -0.03071,-0.722763 -0.297656,-0.760677 -0.163711,-0.02325 -0.297656,-0.101805 -0.297656,-0.174565 0,-0.07276 0.133945,-0.151316 0.297656,-0.174566 0.262717,-0.03731 0.297656,-0.118836 0.297656,-0.694531 0,-0.544298 -0.04014,-0.652257 -0.242534,-0.652257 -0.133395,0 -0.281706,-0.03917 -0.329582,-0.08705 -0.138831,-0.138832 0.182672,-0.44212 0.468674,-0.44212 0.14357,0 0.428926,-0.119549 0.634127,-0.265664 0.693414,-0.493754 1.718274,-0.456369 1.718274,0.06268 0,0.10152 0.133945,0.203606 0.297656,0.226856 0.443292,0.06296 0.372032,0.430689 -0.09373,0.48367 -0.215261,0.02449 -0.568344,0.193424 -0.784627,0.375413 -0.304221,0.255986 -0.507613,0.319986 -0.898461,0.282713 -0.475685,-0.04536 -0.505216,-0.02671 -0.505216,0.319117 v 0.367298 h 1.322916 c 1.087732,0 1.322917,0.03528 1.322917,0.198438 0,0.163159 -0.235185,0.198437 -1.322917,0.198437 h -1.322916 v 0.727604 0.727605 h 9.789583 9.789583 v -5.490102 -5.490104 h -2.116666 -2.116667 v 1.455209 1.455208 h -7.805208 -7.805209 v -1.455208 -1.455209 h -11.90625 -11.90625 v 1.455209 1.455208 H 45.150552 37.345344 V 13.593273 12.138064 H 22.528677 7.7120114 l -0.0029,0.56224 c -0.0031,0.603812 -0.354014,1.512748 -0.691929,1.792339 -0.11418,0.09447 -0.419691,0.206184 -0.678914,0.248251 -0.412439,0.06693 -0.529592,0.01821 -0.937846,-0.390048 -0.731746,-0.731746 -0.62154,-1.683615 0.194927,-1.683615 0.446374,0 0.661458,0.225765 0.661458,0.694302 0,0.297519 -0.08784,0.413736 -0.417446,0.552326 l -0.417446,0.175523 0.361553,0.236899 c 0.741043,0.48555 1.493711,-0.179968 1.623275,-1.435322 l 0.07771,-0.752895 h -2.201316 -2.201321 v 5.490104 5.490105 h 7.5406246 7.540625 z m 8.064282,-3.323132 c -0.140597,-0.169409 -0.131911,-0.243365 0.04995,-0.425222 0.205333,-0.205334 0.234959,-0.205334 0.440293,0 0.181857,0.181857 0.190543,0.255813 0.04995,0.425222 -0.09361,0.112793 -0.215151,0.205077 -0.270093,0.205077 -0.05494,0 -0.176484,-0.09228 -0.270093,-0.205077 z m 39.422917,0 c -0.140597,-0.169409 -0.131911,-0.243365 0.04995,-0.425222 0.205334,-0.205334 0.234959,-0.205334 0.440293,0 0.181858,0.181857 0.190544,0.255813 0.04995,0.425222 -0.09361,0.112793 -0.215151,0.205077 -0.270093,0.205077 -0.05494,0 -0.176484,-0.09228 -0.270093,-0.205077 z M 18.692219,18.639992 c 0,-0.07409 0.05425,-0.277401 0.120562,-0.451809 0.06631,-0.174408 0.210728,-0.620718 0.320927,-0.9918 l 0.200364,-0.674694 -0.534043,0.02407 c -0.62599,0.02822 -0.937353,-0.275194 -0.688028,-0.670458 0.204376,-0.324004 0.621359,-0.288503 0.776953,0.06615 0.07182,0.163711 0.198986,0.297656 0.282583,0.297656 0.149943,0 0.460376,-0.564781 0.643614,-1.170956 0.08768,-0.290064 0.06688,-0.305096 -0.308254,-0.222704 -0.73751,0.161985 -1.259037,-0.431618 -0.750216,-0.8539 0.252136,-0.209255 0.602376,-0.07554 0.691131,0.263853 0.08235,0.31491 0.211845,0.3344 0.435032,0.06548 0.09058,-0.109141 0.208415,-0.198438 0.261858,-0.198438 0.158123,0 -1.118334,4.540875 -1.292806,4.599031 -0.08782,0.02927 -0.159677,-0.0074 -0.159677,-0.08148 z m 39.555208,0 c 0,-0.07409 0.05425,-0.277401 0.120563,-0.451809 0.06631,-0.174408 0.210727,-0.620718 0.320926,-0.9918 l 0.200364,-0.674694 -0.534043,0.02407 c -0.62599,0.02822 -0.937353,-0.275194 -0.688028,-0.670458 0.204376,-0.324004 0.62136,-0.288503 0.776953,0.06615 0.07182,0.163711 0.198987,0.297656 0.282583,0.297656 0.149943,0 0.460376,-0.564781 0.643615,-1.170956 0.08768,-0.290064 0.06688,-0.305096 -0.308254,-0.222704 -0.73751,0.161985 -1.259037,-0.431618 -0.750217,-0.8539 0.252136,-0.209255 0.602377,-0.07554 0.691131,0.263853 0.08235,0.31491 0.211846,0.3344 0.435032,0.06548 0.09058,-0.109141 0.208415,-0.198438 0.261858,-0.198438 0.158123,0 -1.118334,4.540875 -1.292806,4.599031 -0.08782,0.02927 -0.159677,-0.0074 -0.159677,-0.08148 z M 24.715126,17.779535 c 0.143521,-0.09865 0.558603,-0.274918 0.922405,-0.391709 1.39683,-0.448422 2.488536,-0.553408 5.754688,-0.553408 3.459609,0 4.728322,0.156716 6.122515,0.756272 0.817914,0.351735 0.737689,0.43542 -0.111129,0.115922 -1.301735,-0.489979 -2.494474,-0.607667 -6.143678,-0.606205 -3.618915,0.0015 -5.290898,0.18078 -6.234377,0.668673 -0.464399,0.240151 -0.653881,0.246532 -0.310424,0.01045 z m 39.816155,-0.152879 c 1.142213,-0.535638 2.452213,-0.737999 5.296467,-0.818171 2.736928,-0.07714 4.667289,0.06024 6.103859,0.434421 0.806677,0.210112 1.675962,0.582238 1.581282,0.676919 -0.03222,0.03222 -0.232251,-0.03123 -0.444512,-0.14099 -0.962743,-0.497854 -2.613693,-0.676969 -6.253242,-0.678428 -3.654968,-0.0015 -4.841847,0.116088 -6.151562,0.609277 -0.885201,0.333333 -0.942914,0.297111 -0.132292,-0.08303 z m 34.594274,4.764012 c 0,-0.687916 -0.018,-0.727604 -0.33073,-0.727604 -0.20579,0 -0.33073,-0.07497 -0.33073,-0.198437 0,-0.132879 0.13289,-0.198438 0.40223,-0.198438 0.22123,0 0.56931,-0.123526 0.773518,-0.274504 0.24025,-0.177626 0.599897,-0.282674 1.019067,-0.297656 0.55634,-0.01989 0.66632,0.01886 0.7792,0.274504 0.0805,0.182267 0.24748,0.297656 0.43079,0.297656 0.1779,0 0.29936,0.08051 0.29936,0.198438 0,0.130415 -0.1305,0.198437 -0.38068,0.198437 -0.20937,0 -0.46238,0.09852 -0.56224,0.21893 -0.2446,0.294944 -0.94284,0.57482 -1.434087,0.57482 -0.339668,0 -0.401118,0.05067 -0.401118,0.330729 v 0.33073 h 2.248955 2.24896 v -0.718404 c 0,-0.621042 -0.0366,-0.724133 -0.26983,-0.760677 -0.372,-0.05828 -0.39107,-0.297542 -0.0278,-0.349131 0.21908,-0.03111 0.29766,-0.130601 0.29766,-0.376871 0,-0.716943 1.31769,-1.459006 1.97044,-1.109664 0.36729,0.196567 0.36284,0.760538 -0.009,1.156481 l -0.28764,0.306182 h 0.61837 c 0.46147,0 0.61837,0.05035 0.61837,0.198438 0,0.163159 -0.23518,0.198437 -1.32291,0.198437 h -1.32292 v 0.727604 0.727605 h 0.80877 0.80876 l -0.0688,-0.363803 c -0.0378,-0.200091 -0.11107,-0.497747 -0.16274,-0.661458 -0.0554,-0.175379 -0.0386,-0.297656 0.0408,-0.297656 0.14998,0 0.42524,0.697856 0.42524,1.078074 0,0.23479 0.2553,0.244843 6.21771,0.244843 h 6.21771 v -0.727605 c 0,-0.639409 -0.0321,-0.727604 -0.26458,-0.727604 -0.14699,0 -0.26459,-0.08819 -0.26459,-0.198437 0,-0.110243 0.1176,-0.198438 0.26459,-0.198438 0.19671,0 0.26458,-0.0882 0.26458,-0.343798 0,-0.725914 1.31232,-1.471081 1.97045,-1.118865 0.36729,0.196567 0.36283,0.760538 -0.009,1.156481 l -0.28765,0.306182 h 0.61837 c 0.46148,0 0.61838,0.05035 0.61838,0.198438 0,0.163159 -0.23519,0.198437 -1.32292,0.198437 h -1.32292 v 0.727604 0.727605 h 10.05417 10.05417 v -0.718404 c 0,-0.644291 -0.0307,-0.722763 -0.29766,-0.760677 -0.40563,-0.05761 -0.32585,-0.291814 0.12708,-0.373003 0.20296,-0.03638 0.52991,-0.175329 0.72656,-0.308774 0.20534,-0.139339 0.62737,-0.251976 0.99135,-0.264583 0.5376,-0.01862 0.65335,0.02231 0.76264,0.269691 0.0744,0.168319 0.27051,0.308173 0.46387,0.330729 0.46374,0.0541 0.42099,0.294206 -0.0619,0.347333 -0.21828,0.02402 -0.51594,0.153996 -0.66146,0.288843 -0.33907,0.314197 -0.90406,0.527386 -1.39768,0.527386 -0.32595,0 -0.38826,0.05308 -0.38826,0.330729 v 0.33073 h 2.3151 2.31511 v -0.727605 c 0,-0.687916 -0.018,-0.727604 -0.33073,-0.727604 -0.20579,0 -0.33073,-0.07497 -0.33073,-0.198437 0,-0.120365 0.1229,-0.198438 0.31238,-0.198438 0.26159,0 0.30214,-0.0536 0.24938,-0.329594 -0.13081,-0.684306 1.25851,-1.496645 1.93785,-1.133069 0.36886,0.197406 0.36801,0.811965 -0.002,1.144503 l -0.28008,0.252014 0.61405,0.06615 c 1.11787,0.120413 0.73137,0.329126 -0.68226,0.36843 l -1.35599,0.0377 v 0.722975 0.722977 h 0.80876 0.80877 l -0.0688,-0.363803 c -0.0378,-0.200091 -0.11108,-0.497747 -0.16274,-0.661458 -0.0554,-0.175379 -0.0386,-0.297656 0.0408,-0.297656 0.14998,0 0.42525,0.697856 0.42525,1.078074 0,0.234825 0.25708,0.244843 6.28385,0.244843 h 6.28386 v -0.727607 c 0,-0.687916 -0.0181,-0.727604 -0.33073,-0.727604 -0.20579,0 -0.33073,-0.07497 -0.33073,-0.198437 0,-0.123472 0.12494,-0.198438 0.33073,-0.198438 0.26793,0 0.33073,-0.06527 0.33073,-0.343798 0,-0.725914 1.31232,-1.471081 1.97044,-1.118865 0.36886,0.197407 0.36801,0.811968 -0.002,1.144503 l -0.28011,0.252014 0.57776,0.06615 c 1.02442,0.117282 0.55755,0.329457 -0.81068,0.36843 l -1.32354,0.0377 v 0.722975 0.722977 h 9.85573 9.85573 v -5.490107 -5.490104 h -2.11667 -2.11666 v 0.859896 0.859896 h -7.80521 -7.80521 V 12.99796 12.138064 h -2.64583 -2.64584 v 1.037642 1.037643 l -2.62904,0.682149 c -1.44598,0.375183 -2.69613,0.68215 -2.77813,0.68215 -0.10293,0 -0.14908,-0.532339 -0.14908,-1.719792 v -1.719792 h -6.68073 -6.68073 v 0.859896 0.859896 h -7.8052 -7.80521 V 12.99796 12.138064 h -2.57969 -2.57969 v 1.039381 1.039383 l -2.72462,0.689811 c -1.49855,0.379395 -2.76359,0.651025 -2.8112,0.603618 -0.0476,-0.04741 -0.10631,-0.825542 -0.13044,-1.729192 l -0.0438,-1.643001 h -5.21474 -5.214723 v 5.490104 5.490105 h 0.992188 0.99219 z m 7.931985,-1.594139 c -0.1406,-0.169409 -0.13191,-0.243365 0.0499,-0.425223 0.20534,-0.205334 0.23496,-0.205334 0.4403,0 0.18185,0.181858 0.19054,0.255814 0.0499,0.425223 -0.0936,0.112793 -0.21515,0.205077 -0.27009,0.205077 -0.0549,0 -0.17648,-0.09228 -0.27009,-0.205077 z m 39.81978,0 c -0.14058,-0.169409 -0.13191,-0.243365 0.05,-0.425223 0.20533,-0.205334 0.23496,-0.205334 0.44029,0 0.18186,0.181858 0.19054,0.255814 0.05,0.425223 -0.0936,0.112793 -0.21516,0.205077 -0.2701,0.205077 -0.0549,0 -0.17649,-0.09228 -0.2701,-0.205077 z M 117.87288,19.62316 c -0.35416,-0.26864 -1.70205,-0.570639 -3.33535,-0.7473 -2.46113,-0.2662 -6.03265,0.02107 -7.40834,0.595869 -0.27701,0.115738 -0.52608,0.187996 -0.5535,0.160573 -0.10966,-0.109656 1.36395,-0.644571 2.31766,-0.8413 1.46813,-0.302847 5.54151,-0.29289 6.96709,0.01703 1.12542,0.244662 2.08978,0.613092 2.2397,0.855667 0.11751,0.190141 0.0644,0.18066 -0.22726,-0.04054 z m 28.43117,0.0288 c 0.14314,-0.231614 1.12743,-0.603703 2.23243,-0.843929 1.42559,-0.309919 5.49897,-0.319876 6.96711,-0.01703 0.9537,0.196729 2.42731,0.731644 2.31765,0.8413 -0.0274,0.02742 -0.2765,-0.04483 -0.55349,-0.160573 -2.28555,-0.954961 -8.45157,-0.907154 -10.55083,0.0818 -0.27316,0.128684 -0.45895,0.172977 -0.41287,0.09843 z M 99.654713,18.639992 c 0,-0.07409 0.0543,-0.277401 0.12057,-0.451809 0.0663,-0.174408 0.21072,-0.620718 0.320927,-0.9918 l 0.20037,-0.674694 -0.534057,0.02407 c -0.625988,0.02822 -0.937348,-0.275194 -0.688018,-0.670458 0.20437,-0.324004 0.621358,-0.288503 0.776948,0.06615 0.0718,0.163711 0.198997,0.297656 0.282587,0.297656 0.14994,0 0.46038,-0.564781 0.64362,-1.170956 0.0877,-0.290064 0.0669,-0.305096 -0.30826,-0.222704 -0.737517,0.161985 -1.259035,-0.431618 -0.750217,-0.8539 0.25213,-0.209255 0.602377,-0.07554 0.691137,0.263853 0.0824,0.31491 0.21184,0.3344 0.43503,0.06548 0.0906,-0.109141 0.2084,-0.198438 0.26185,-0.198438 0.15812,0 -1.118337,4.540875 -1.292807,4.599031 -0.0878,0.02927 -0.15968,-0.0074 -0.15968,-0.08148 z m 39.687497,0 c 0,-0.07409 0.0543,-0.277401 0.12056,-0.451809 0.0663,-0.174408 0.21073,-0.620718 0.32093,-0.9918 l 0.20037,-0.674694 -0.53405,0.02407 c -0.62598,0.02822 -0.93735,-0.275194 -0.68802,-0.670458 0.20437,-0.324004 0.62136,-0.288503 0.77694,0.06615 0.0718,0.163711 0.199,0.297656 0.28259,0.297656 0.14994,0 0.46038,-0.564781 0.64362,-1.170956 0.0877,-0.290064 0.0669,-0.305096 -0.30826,-0.222704 -0.73751,0.161985 -1.25903,-0.431618 -0.75021,-0.8539 0.25213,-0.209255 0.60238,-0.07554 0.69113,0.263853 0.0823,0.31491 0.21184,0.3344 0.43503,0.06548 0.0906,-0.109141 0.20841,-0.198438 0.26186,-0.198438 0.15813,0 -1.11834,4.540875 -1.29281,4.599031 -0.0878,0.02927 -0.15968,-0.0074 -0.15968,-0.08148 z m -119.958657,3.28815 0.433145,-0.264088 -0.694531,-5.29e-4 c -0.606502,-3.97e-4 -0.694532,0.03304 -0.694532,0.264088 0,0.345906 0.389061,0.346107 0.955918,5.29e-4 z m 39.555208,0 0.433145,-0.264088 -0.694531,-5.29e-4 c -0.606502,-3.97e-4 -0.694531,0.03304 -0.694531,0.264088 0,0.345906 0.38906,0.346107 0.955917,5.29e-4 z m 41.407299,0 0.43314,-0.264088 -0.69453,-5.29e-4 c -0.606507,-3.97e-4 -0.694535,0.03304 -0.694535,0.264088 0,0.345906 0.389058,0.346107 0.955925,5.29e-4 z m 39.68748,0 0.43315,-0.264088 -0.69453,-5.29e-4 c -0.6065,-3.97e-4 -0.69453,0.03304 -0.69453,0.264088 0,0.345906 0.38906,0.346107 0.95591,5.29e-4 z M 20.41201,21.129746 c 0,-0.254185 -0.417841,-0.298554 -0.838309,-0.08902 l -0.418461,0.208538 0.628385,0.0085 c 0.348946,0.0047 0.628385,-0.05222 0.628385,-0.127982 z m 39.555209,0 c 0,-0.254185 -0.417842,-0.298554 -0.83831,-0.08902 l -0.418461,0.208538 0.628385,0.0085 c 0.348946,0.0047 0.628386,-0.05222 0.628386,-0.127982 z m 41.407291,0 c 0,-0.254185 -0.41785,-0.298554 -0.8383,-0.08902 l -0.41847,0.208538 0.62839,0.0085 c 0.34894,0.0047 0.62838,-0.05222 0.62838,-0.127982 z m 39.6875,0 c 0,-0.254185 -0.41785,-0.298554 -0.83831,-0.08902 l -0.41847,0.208538 0.62839,0.0085 c 0.34895,0.0047 0.62839,-0.05222 0.62839,-0.127982 z m -30.62553,-7.003075 c 1.16417,-0.298044 2.22085,-0.573762 2.34818,-0.612709 0.25276,-0.07731 0.3241,-0.582148 0.0823,-0.582148 -0.0821,0 -1.24294,0.280189 -2.57969,0.62264 -2.29023,0.586723 -2.43043,0.640656 -2.43043,0.934956 0,0.234614 0.0576,0.295752 0.23151,0.245738 0.12733,-0.03662 1.18401,-0.310433 2.34817,-0.608477 z m 40.00089,-0.06036 c 1.26376,-0.325973 2.32525,-0.620179 2.35887,-0.653791 0.0336,-0.03361 0.0414,-0.175991 0.0173,-0.316403 -0.0413,-0.241046 -0.18588,-0.218396 -2.59038,0.405871 -2.42124,0.628613 -2.54661,0.676883 -2.54661,0.980453 0,0.243079 0.0553,0.302255 0.23151,0.24792 0.12733,-0.03925 1.2655,-0.338075 2.52927,-0.66405 z M 41.84326,13.990148 c 0,-0.253893 -0.08819,-0.264584 -2.182812,-0.264584 -2.094618,0 -2.182813,0.01069 -2.182813,0.264584 0,0.253892 0.08819,0.264583 2.182813,0.264583 2.094618,0 2.182812,-0.01069 2.182812,-0.264583 z m 5.423959,0 c 0,-0.255538 -0.08819,-0.264584 -2.579688,-0.264584 -2.491492,0 -2.579687,0.009 -2.579687,0.264584 0,0.255537 0.08819,0.264583 2.579687,0.264583 2.491493,0 2.579688,-0.009 2.579688,-0.264583 z m 5.423958,0 c 0,-0.255538 -0.08819,-0.264584 -2.579687,-0.264584 -2.491493,0 -2.579688,0.009 -2.579688,0.264584 0,0.255537 0.08819,0.264583 2.579688,0.264583 2.491492,0 2.579687,-0.009 2.579687,-0.264583 z m 28.575,0 c 0,-0.25356 -0.08819,-0.264584 -2.116667,-0.264584 -2.028471,0 -2.116666,0.01102 -2.116666,0.264584 0,0.253559 0.08819,0.264583 2.116666,0.264583 2.028472,0 2.116667,-0.01102 2.116667,-0.264583 z m 5.423958,0 c 0,-0.255538 -0.08819,-0.264584 -2.579687,-0.264584 -2.491493,0 -2.579688,0.009 -2.579688,0.264584 0,0.255537 0.08819,0.264583 2.579688,0.264583 2.491493,0 2.579687,-0.009 2.579687,-0.264583 z m 5.423959,0 c 0,-0.255538 -0.08819,-0.264584 -2.579688,-0.264584 -2.491492,0 -2.579687,0.009 -2.579687,0.264584 0,0.255537 0.08819,0.264583 2.579687,0.264583 2.491493,0 2.579688,-0.009 2.579688,-0.264583 z m 18.029066,-1.20003 c 1.17819,-0.296214 2.1677,-0.564105 2.19891,-0.595313 0.0312,-0.03121 -0.96521,-0.05674 -2.21427,-0.05674 h -2.271 v 0.595313 c 0,0.327422 0.0324,0.595312 0.0721,0.595312 0.0396,0 1.03607,-0.242357 2.21426,-0.538572 z m 39.91468,-0.05098 2.18281,-0.582308 -2.28203,-0.0094 -2.28203,-0.0094 v 0.595313 c 0,0.327422 0.0447,0.593682 0.0992,0.59169 0.0546,-0.002 1.08148,-0.265661 2.28203,-0.58593 z m -26.9875,0.06039 c 0,-0.253893 -0.0882,-0.264584 -2.18281,-0.264584 -2.09462,0 -2.18282,0.01069 -2.18282,0.264584 0,0.253892 0.0882,0.264583 2.18282,0.264583 2.09461,0 2.18281,-0.01069 2.18281,-0.264583 z m 5.42396,0 c 0,-0.255764 -0.0882,-0.264584 -2.64584,-0.264584 -2.55763,0 -2.64583,0.0088 -2.64583,0.264584 0,0.255763 0.0882,0.264583 2.64583,0.264583 2.55764,0 2.64584,-0.0088 2.64584,-0.264583 z m 5.42396,0 c 0,-0.255764 -0.0882,-0.264584 -2.64584,-0.264584 -2.55763,0 -2.64583,0.0088 -2.64583,0.264584 0,0.255763 0.0882,0.264583 2.64583,0.264583 2.55764,0 2.64584,-0.0088 2.64584,-0.264583 z m 28.83958,0 c 0,-0.253893 -0.0882,-0.264584 -2.18281,-0.264584 -2.09462,0 -2.18282,0.01069 -2.18282,0.264584 0,0.253892 0.0882,0.264583 2.18282,0.264583 2.09461,0 2.18281,-0.01069 2.18281,-0.264583 z m 5.42396,0 c 0,-0.255538 -0.0882,-0.264584 -2.57969,-0.264584 -2.49149,0 -2.57969,0.009 -2.57969,0.264584 0,0.255537 0.0882,0.264583 2.57969,0.264583 2.49149,0 2.57969,-0.009 2.57969,-0.264583 z m 5.42396,0 c 0,-0.255538 -0.0882,-0.264584 -2.57969,-0.264584 -2.49149,0 -2.57969,0.009 -2.57969,0.264584 0,0.255537 0.0882,0.264583 2.57969,0.264583 2.49149,0 2.57969,-0.009 2.57969,-0.264583 z M 41.84326,12.468793 v -0.330729 h -2.182812 -2.182813 v 0.330729 0.33073 h 2.182813 2.182812 z m 5.423959,0 v -0.330729 h -2.579688 -2.579687 v 0.330729 0.33073 h 2.579687 2.579688 z m 5.423958,0 V 12.138064 H 50.11149 47.531802 v 0.330729 0.33073 h 2.579688 2.579687 z m 28.575,0 V 12.138064 H 79.14951 77.032844 v 0.330729 0.33073 h 2.116666 2.116667 z m 5.423958,0 V 12.138064 H 84.110448 81.53076 v 0.330729 0.33073 h 2.579688 2.579687 z m 5.423959,0 v -0.330729 h -2.579688 -2.579687 v 0.330729 0.33073 h 2.579687 2.579688 z M 5.2419384,11.408137 c -0.31495,-0.328699 -0.572636,-0.685888 -0.572636,-0.793751 0,-0.151501 -0.180567,-0.196114 -0.79375,-0.196114 h -0.79375 v 0.793751 0.79375 h 1.366386 1.366385 z M 37.345344,11.212023 v -0.793751 h -4.182795 -4.182797 l -0.452016,0.396875 c -0.683929,0.600498 -1.765726,0.473133 -1.765726,-0.207887 0,-0.161918 -1.275275,-0.188988 -8.903111,-0.188988 H 8.9557884 l -0.165065,0.456474 c -0.09078,0.251062 -0.345436,0.60825 -0.565892,0.79375 l -0.400829,0.337277 H 22.584672 37.345344 Z m 4.497916,0 v -0.793751 h -2.182812 -2.182813 v 0.793751 0.79375 h 2.182813 2.182812 z m 5.423959,0 v -0.793751 h -1.603108 -1.603109 l -0.46584,0.409013 c -0.383953,0.337115 -0.55562,0.400452 -0.97658,0.360307 -0.498779,-0.04757 -0.510738,-0.03856 -0.510738,0.384736 v 0.433445 h 2.579687 2.579688 z m 5.423958,0 V 10.418272 H 50.11149 47.531802 v 0.793751 0.79375 h 2.579688 2.579687 z m 24.077083,0 v -0.793751 h -4.182795 -4.182796 l -0.452016,0.396875 c -0.683929,0.600498 -1.765726,0.473133 -1.765726,-0.207887 0,-0.16127 -0.970138,-0.188988 -6.614583,-0.188988 H 52.95576 v 0.793751 0.79375 h 11.90625 11.90625 z m 4.497917,0 V 10.418272 H 79.14951 77.032844 v 0.793751 0.79375 h 2.116666 2.116667 z m 5.423958,0 v -0.793751 h -1.603107 -1.603109 l -0.46584,0.409013 c -0.383953,0.337115 -0.55562,0.400452 -0.97658,0.360307 -0.498779,-0.04757 -0.510739,-0.03856 -0.510739,0.384736 v 0.433445 h 2.579688 2.579687 z m 5.423959,0 v -0.793751 h -2.579688 -2.579687 v 0.793751 0.79375 h 2.579687 2.579688 z m 4.497916,0 v -0.793751 h -2.116666 -2.116667 v 0.793751 0.79375 h 2.116667 2.116666 z m 10.9802,0 v -0.793751 h -5.22552 -5.225513 v 0.793751 0.79375 h 5.225513 5.22552 z m 5.42396,0 v -0.793751 h -2.57969 -2.57968 v 0.793751 0.79375 h 2.57968 2.57969 z m 5.42396,0 v -0.793751 h -2.57969 -2.57968 v 0.793751 0.79375 h 2.57968 2.57969 z m 28.97188,0 v -0.793751 h -6.68073 -6.68073 v 0.793751 0.79375 h 6.68073 6.68073 z m 5.42395,0 v -0.793751 h -2.57968 -2.57969 v 0.793751 0.79375 h 2.57969 2.57968 z m 5.42396,0 v -0.793751 h -2.64583 -2.64583 v 0.793751 0.79375 h 2.64583 2.64583 z m 19.84375,0 v -0.793751 h -2.11666 -2.11667 v 0.793751 0.79375 h 2.11667 2.11666 z M 7.3151364,11.559288 c 0,-0.172806 -0.03721,-0.500228 -0.08268,-0.727605 -0.07627,-0.381345 -0.124233,-0.413411 -0.618373,-0.413411 h -0.535691 l 0.297593,0.316772 c 0.445355,0.47406 0.105958,0.539834 -0.354635,0.06873 -0.287498,-0.29406 -0.494822,-0.393968 -0.752495,-0.362621 l -0.355663,0.04327 0.310641,0.463021 c 0.363018,0.541091 1.052899,0.925547 1.661357,0.925838 0.36444,1.32e-4 0.429948,-0.04767 0.429948,-0.313988 z m 0.852394,-0.244409 c 0.113266,-0.161711 0.205939,-0.429603 0.205939,-0.595314 0,-0.25812 -0.06872,-0.301293 -0.479557,-0.301293 -0.466549,0 -0.477315,0.01121 -0.396875,0.413411 0.04548,0.227377 0.08268,0.495268 0.08268,0.595314 0,0.282757 0.359221,0.214239 0.587811,-0.112118 z M 123.07034,11.013584 v -0.595312 h -2.18281 -2.18282 v 0.595312 0.595314 h 2.18282 2.18281 z m 5.42396,0 v -0.595312 h -2.64584 -2.64583 v 0.595312 0.595314 h 2.64583 2.64584 z m 5.42396,0 v -0.595312 h -2.64584 -2.64583 v 0.595312 0.595314 h 2.64583 2.64584 z m 28.83958,0 v -0.595312 h -2.18281 -2.18282 v 0.595312 0.595314 h 2.18282 2.18281 z m 5.42396,0 v -0.595312 h -2.57969 -2.57969 v 0.595312 0.595314 h 2.57969 2.57969 z m 5.42396,0 v -0.595312 h -2.57969 -2.57969 v 0.595312 0.595314 h 2.57969 2.57969 z M 4.4804914,9.4260681 l 0.0096,-0.85988 h -0.704161 -0.704158 v 0.859896 0.8598959 l 0.694531,-1.6e-5 0.694532,-1.6e-5 0.0096,-0.8598799 z m 1.179004,0.7243919 c -0.151041,-0.2443887 0.09123,-0.9568479 0.433127,-1.2737049 l 0.335107,-0.310567 h -0.53412 c -0.500105,0 -0.547672,0.03387 -0.746922,0.531844 -0.117041,0.292514 -0.212801,0.6794672 -0.212801,0.8598962 0,0.2777137 0.0621,0.3280517 0.404682,0.3280517 0.242527,0 0.371122,-0.0543 0.320927,-0.13552 z m 1.389251,-0.09599 c -0.003,-0.3872997 -0.154108,-0.8268219 -0.28422,-0.8268219 -0.20028,0 -0.772307,0.6324472 -0.772307,0.8538819 0,0.150332 0.140074,0.204451 0.529167,0.204451 0.416462,0 0.528782,-0.04931 0.52736,-0.231511 z m 1.324723,0.08904 c 0,-0.2203337 -0.747678,-0.9158649 -0.984532,-0.9158649 -0.202448,0 -0.202649,0.237635 -7.58e-4,0.8929689 0.06217,0.201787 0.98529,0.223239 0.98529,0.0229 z M 12.20948,9.9090103 C 12.002146,9.7016763 11.791741,9.3147231 11.741912,9.0491141 l -0.0906,-0.482926 H 9.7432053 7.8350964 l 0.463525,0.406981 c 0.289703,0.254362 0.495388,0.5768252 0.548493,0.8598962 l 0.08497,0.4529147 h 1.8271846 1.827183 z m 1.726808,0.1751347 c 0.214669,-0.1110087 0.390306,-0.2484587 0.390306,-0.3054437 0,-0.172441 0.388138,-0.6290972 0.392668,-0.4619862 0.0023,0.08537 -0.151092,0.3397762 -0.3409,0.5653512 l -0.345106,0.4101357 2.351255,-0.03618 2.351256,-0.03618 0.232556,-0.6614577 c 0.127907,-0.3638022 0.23717,-0.7358732 0.24281,-0.8268232 0.008,-0.128176 -0.737299,-0.165365 -3.313871,-0.165365 h -3.324123 l 0.06569,0.683667 c 0.09401,0.9783579 0.506251,1.2434379 1.297457,0.8342899 z m 13.046698,-0.04208 c 0.231084,-0.3700217 1.071582,-0.7212689 1.51413,-0.6327589 0.361993,0.0724 0.381561,0.05274 0.381561,-0.383401 v -0.459714 h -4.674665 -4.674665 l -0.220126,0.791753 c -0.12107,0.4354642 -0.220127,0.8224169 -0.220127,0.8598959 0,0.03748 1.741851,0.06814 3.870781,0.06814 3.618193,0 3.880723,-0.01592 4.023111,-0.243918 z M 37.345344,9.4260841 v -0.859896 h -4.167188 -4.167187 v 0.859896 0.8598959 h 4.167187 4.167188 z m 4.890278,0.4672382 c 0.743983,-0.6949852 1.856597,-0.6550832 1.856597,0.06658 v 0.3260737 h 1.5875 1.5875 V 9.4260841 8.5661881 h -4.894792 -4.894792 v 0.859896 0.8598959 h 2.168822 2.168822 z M 52.691177,9.4260841 V 8.5661881 H 50.11149 47.531802 v 0.859896 0.8598959 h 2.579688 2.579687 z m 5.832331,0.1322922 c 0.127918,-0.3638022 0.237194,-0.7358732 0.242833,-0.8268232 0.0079,-0.127592 -0.654556,-0.165365 -2.900164,-0.165365 H 52.95576 v 0.862635 0.8626349 l 2.667584,-0.03581 2.667583,-0.03581 z m 7.882395,0.4836857 c 0.231083,-0.3700217 1.071581,-0.7212689 1.51413,-0.6327589 0.361992,0.0724 0.381561,0.05274 0.381561,-0.383401 v -0.459714 h -4.608519 -4.608519 l -0.220127,0.791753 c -0.12107,0.4354642 -0.220127,0.8224169 -0.220127,0.8598959 0,0.03748 1.712086,0.06814 3.804636,0.06814 3.553915,0 3.814675,-0.01607 3.956965,-0.243918 z M 76.76826,9.4260841 v -0.859896 h -4.101041 -4.101042 v 0.650639 c 0,0.3578512 -0.03613,0.7448042 -0.0803,0.8598959 -0.07218,0.188095 0.342556,0.209257 4.101042,0.209257 h 4.181341 z m 4.890278,0.4672382 c 0.743984,-0.6949852 1.856597,-0.6550832 1.856597,0.06658 v 0.3260737 h 1.5875 1.5875 V 9.4260841 8.5661881 H 81.86149 77.032844 v 0.859896 0.8598959 h 2.102675 2.102677 z M 92.114094,9.4260841 v -0.859896 h -2.579688 -2.579687 v 0.859896 0.8598959 h 2.579687 2.579688 z m 4.497916,0 v -0.859896 h -2.116666 -2.116667 v 0.859896 0.8598959 h 2.116667 2.116666 z m 3.318993,0.1322922 C 100.29692,8.5167991 100.36006,8.5661881 98.662535,8.5661881 h -1.521358 v 0.864687 0.8646859 l 1.278728,-0.03786 1.278718,-0.03786 z m 7.661207,0.345385 c 0,-0.4489932 0.30643,-0.8532162 0.8599,-1.1343512 0.36368,-0.184731 0.0474,-0.20166 -3.7817,-0.202407 l -4.17856,-8.15e-4 -0.22012,0.791753 c -0.12107,0.4354642 -0.22013,0.8224169 -0.22013,0.8598959 0,0.03748 1.69663,0.06814 3.7703,0.06814 h 3.77031 z m 5.42396,-0.4776772 v -0.859896 l -1.81901,0.004 c -1.30048,0.0029 -1.75301,0.04246 -1.5875,0.138865 0.34366,0.20016 0.28405,0.7799892 -0.12397,1.2058632 l -0.35548,0.3710407 h 1.94298 1.94298 z m 5.42396,0 v -0.859896 h -2.57969 -2.57968 v 0.859896 0.8598959 h 2.57968 2.57969 z m 4.63021,0.4776772 c 0,-0.4489932 0.30642,-0.8532162 0.85989,-1.1343512 0.36765,-0.186742 0.1898,-0.201652 -2.41432,-0.202407 l -2.8112,-8.15e-4 v 0.859896 0.8598959 h 2.18282 2.18281 z m 5.42396,-0.4776772 v -0.859896 l -1.81901,0.004 c -1.30048,0.0029 -1.75302,0.04246 -1.5875,0.138865 0.34365,0.20016 0.28404,0.7799892 -0.12397,1.2058632 l -0.35548,0.3710407 h 1.94298 1.94298 z m 5.42396,0 v -0.859896 h -2.64584 -2.64583 v 0.859896 0.8598959 h 2.64583 2.64584 z m 5.70003,0.1322922 c 0.12793,-0.3638022 0.2372,-0.7358732 0.24284,-0.8268232 0.008,-0.127592 -0.65455,-0.165365 -2.90017,-0.165365 h -2.91041 v 0.862635 0.8626349 l 2.66758,-0.03581 2.66758,-0.03581 z m 7.79372,0.345385 c 0,-0.4489932 0.30642,-0.8532162 0.85989,-1.1343512 0.36355,-0.184667 0.0405,-0.20166 -3.84783,-0.202407 l -4.24473,-8.15e-4 -0.22012,0.791753 c -0.12107,0.4354642 -0.22013,0.8224169 -0.22013,0.8598959 0,0.03748 1.72641,0.06814 3.83646,0.06814 h 3.83646 z m 5.42395,-0.4776772 v -0.859896 l -1.81901,0.004 c -1.30048,0.0029 -1.75301,0.04246 -1.5875,0.138865 0.34366,0.20016 0.28405,0.7799892 -0.12397,1.2058632 L 148.95,10.285957 h 1.94298 1.94298 z m 5.42396,0 v -0.859896 h -2.64583 -2.64583 v 0.859896 0.8598959 h 2.64583 2.64583 z m 4.49792,0.4776772 c 0,-0.4489932 0.30643,-0.8532162 0.85989,-1.1343512 0.36764,-0.186742 0.1898,-0.201652 -2.41432,-0.202407 l -2.8112,-8.15e-4 v 0.859896 0.8598959 h 2.18282 2.18281 z m 5.42396,-0.4776772 v -0.859896 l -1.81901,0.004 c -1.30048,0.0029 -1.75301,0.04246 -1.5875,0.138865 0.34365,0.20016 0.28404,0.7799892 -0.12397,1.2058632 l -0.35548,0.3710407 h 1.94298 1.94298 z m 5.42396,0 v -0.859896 h -2.57969 -2.57969 v 0.859896 0.8598959 h 2.57969 2.57969 z m 4.49791,0 v -0.859896 h -2.11666 -2.11667 v 0.859896 0.8598959 h 2.11667 2.11666 z M 5.1769854,7.6401471 l 0.559767,-0.79375 h -1.327475 -1.327475 v 0.79375 0.79375 h 0.767707 0.767708 z m 1.476692,0.677994 c 0,-0.320498 -0.178196,-0.942578 -0.270003,-0.942578 -0.05755,0 -0.293238,0.238125 -0.523747,0.529167 l -0.419108,0.529167 h 0.606429 c 0.333536,0 0.606429,-0.05209 0.606429,-0.115756 z M 11.74612,8.0406021 c 0.04751,-0.216313 0.254719,-0.5735 0.460463,-0.79375 l 0.374081,-0.400455 H 9.6171713 c -1.6299219,0 -2.9631619,0.04465 -2.9627559,0.09922 7.41e-4,0.09996 0.231314,1.015809 0.333052,1.322916 0.04104,0.123882 0.633942,0.165365 2.363526,0.165365 h 2.3087446 z m 2.077765,0.234545 c -0.240053,-0.240054 -0.190611,-0.612861 0.105834,-0.797993 0.3551,-0.221764 0.334436,-0.305141 -0.122539,-0.494426 -0.704489,-0.291809 -1.200378,0.146302 -1.200378,1.060518 0,0.38259 0.0142,0.390651 0.687917,0.390651 0.535046,0 0.652638,-0.03528 0.529166,-0.15875 z m 5.581654,-0.05017 c 0.06582,-0.171525 0.01054,-0.193628 -0.308816,-0.123485 -0.725759,0.159404 -1.240397,-0.438971 -0.736917,-0.856822 0.252136,-0.209255 0.602376,-0.07554 0.691131,0.263853 0.081,0.309729 0.40985,0.351179 0.519483,0.06548 0.04188,-0.109141 0.135679,-0.198437 0.20844,-0.198437 0.07276,0 0.0959,0.09483 0.05143,0.210727 -0.04447,0.1159 -0.116828,0.354025 -0.160786,0.529167 l -0.07992,0.318439 h 4.64455 4.64455 v -0.79375 -0.79375 h -7.417935 -7.417935 l 0.274185,0.34857 c 0.303579,0.385937 0.366108,1.047498 0.108821,1.151316 -0.09095,0.0367 0.974243,0.07143 2.367096,0.07717 2.191797,0.009 2.543245,-0.01766 2.61263,-0.198477 z m 12.827133,-0.185952 c -0.06556,-0.327791 -0.0064,-0.462631 0.348026,-0.79375 L 33.0077,6.8463971 h -1.998365 -1.998366 v 0.79375 0.79375 h 1.650338 1.650339 z m 5.112672,-0.398878 v -0.79375 h -1.455209 -1.455208 v 0.422709 c 0,0.278488 -0.121284,0.549301 -0.355479,0.79375 l -0.35548,0.371041 h 1.810688 1.810688 z m 9.921875,0.383806 c 0,-0.288016 0.122203,-0.524099 0.410866,-0.79375 l 0.410865,-0.383806 h -5.305657 -5.305658 v 0.79375 0.79375 h 4.894792 4.894792 z m 5.423958,-0.383806 v -0.79375 H 51.060443 49.42971 l 0.05954,0.405686 c 0.046,0.313408 -0.02503,0.493958 -0.312247,0.79375 l -0.371787,0.388064 h 1.94298 1.942979 z m 6.269571,0.584829 c 0.06582,-0.171524 0.01054,-0.193627 -0.308817,-0.123484 -0.725758,0.159403 -1.240397,-0.438971 -0.736917,-0.856822 0.252136,-0.209255 0.602377,-0.07554 0.691131,0.263853 0.081,0.309728 0.40985,0.351179 0.519483,0.06548 0.04188,-0.109141 0.13568,-0.198438 0.20844,-0.198438 0.07276,0 0.0959,0.09483 0.05143,0.210728 -0.04447,0.1159 -0.116828,0.354025 -0.160786,0.529166 l -0.07992,0.318439 h 4.578405 4.578404 v -0.79375 -0.793749 h -7.672917 -7.672917 v 0.793749 0.79375 h 2.962409 c 2.577279,0 2.972832,-0.02716 3.042579,-0.20892 z m 12.69484,-0.185951 c -0.06556,-0.327791 -0.0064,-0.462631 0.348027,-0.79375 l 0.427001,-0.398878 h -1.932219 -1.93222 v 0.79375 0.79375 h 1.584193 1.584193 z m 5.112672,-0.398878 v -0.79375 h -1.455208 -1.455208 v 0.422709 c 0,0.278488 -0.121284,0.549301 -0.35548,0.79375 l -0.355479,0.371041 h 1.810688 1.810687 z m 9.921875,0.383806 c 0,-0.288016 0.122204,-0.524099 0.410867,-0.79375 l 0.410864,-0.383806 h -5.23951 -5.239512 v 0.79375 0.79375 h 4.828646 4.828645 z m 5.423959,-0.383806 v -0.79375 H 90.48336 88.852627 l 0.05954,0.405686 c 0.046,0.313408 -0.02503,0.493958 -0.312246,0.79375 l -0.371786,0.388064 h 1.942979 1.94298 z m 4.497916,0 v -0.79375 h -2.116666 -2.116667 v 0.79375 0.79375 h 2.116667 2.116666 z m 3.75603,0.584829 c 0.0658,-0.171524 0.0106,-0.193627 -0.30881,-0.123484 -0.725765,0.159403 -1.240405,-0.438971 -0.736925,-0.856822 0.252138,-0.209255 0.602378,-0.07554 0.691135,0.263853 0.081,0.309728 0.40985,0.351179 0.51948,0.06548 0.0419,-0.109141 0.13568,-0.198438 0.20844,-0.198438 0.0728,0 0.0959,0.09483 0.0514,0.210728 -0.0445,0.1159 -0.11683,0.354025 -0.16078,0.529166 l -0.0799,0.318439 h 6.23204 6.23205 v -0.79375 -0.793749 h -7.9375 -7.937493 v 0.793749 0.79375 h 1.573348 c 1.311585,0 1.586685,-0.03476 1.653515,-0.20892 z m 18.07209,-0.584829 v -0.79375 h -1.53839 -1.5384 l -0.52638,0.475556 c -0.45015,0.406681 -0.60096,0.468445 -1.04129,0.426452 -0.48651,-0.0464 -0.51491,-0.02884 -0.51491,0.318194 v 0.367298 h 2.57968 2.57969 z m 10.05417,0 v -0.79375 h -4.89479 -4.8948 v 0.79375 0.79375 h 4.8948 4.89479 z m 5.42396,0 v -0.79375 h -1.5384 -1.53839 l -0.52939,0.478279 c -0.47756,0.43144 -0.58602,0.471898 -1.10744,0.413125 -0.5637,-0.06354 -0.57805,-0.0557 -0.57805,0.315471 v 0.380625 h 2.64583 2.64584 z m 6.13727,0.584829 c 0.0658,-0.171524 0.0106,-0.193627 -0.30881,-0.123484 -0.72576,0.159403 -1.2404,-0.438971 -0.73692,-0.856822 0.25214,-0.209255 0.60238,-0.07554 0.69114,0.263853 0.081,0.309728 0.40984,0.351179 0.51948,0.06548 0.0419,-0.109141 0.13568,-0.198438 0.20844,-0.198438 0.0728,0 0.0959,0.09483 0.0514,0.210728 -0.0445,0.1159 -0.11683,0.354025 -0.16079,0.529166 l -0.0799,0.318439 h 6.2982 6.29819 v -0.79375 -0.793749 h -9.3927 -9.39271 v 0.793749 0.79375 h 2.9624 c 2.57728,0 2.97284,-0.02716 3.04258,-0.20892 z m 18.20439,-0.584829 v -0.79375 h -1.53839 -1.53839 l -0.5294,0.478279 c -0.47756,0.43144 -0.58601,0.471898 -1.10744,0.413125 -0.56369,-0.06354 -0.57804,-0.0557 -0.57804,0.315471 v 0.380625 h 2.64583 2.64583 z m 9.92188,0 v -0.79375 h -4.89479 -4.8948 v 0.79375 0.79375 h 4.8948 4.89479 z m 5.42396,0 v -0.79375 h -1.5384 -1.53839 l -0.52639,0.475556 c -0.45015,0.406681 -0.60095,0.468445 -1.04129,0.426452 -0.48651,-0.0464 -0.51491,-0.02884 -0.51491,0.318194 v 0.367298 h 2.57969 2.57969 z m 4.49791,0 v -0.79375 h -2.11666 -2.11667 v 0.79375 0.79375 h 2.11667 2.11666 z M 6.0622464,6.5755341 c 0.0471,-0.07621 0.01491,-0.433402 -0.07153,-0.79375 l -0.157176,-0.655179 h -1.375867 -1.375868 v 0.79375 0.79375 h 1.447401 c 0.86596,0 1.481805,-0.05567 1.533043,-0.138571 z M 28.878677,5.9203551 v -0.79375 H 18.381352 7.8840264 l -0.471123,0.79375 -0.471123,0.79375 H 17.910228 28.878677 Z m 5.423958,0 v -0.79375 h -2.645833 -2.645833 v 0.79375 0.79375 h 2.645833 2.645833 z m 3.042709,0.383806 c 0,-0.288015 0.122203,-0.524099 0.410866,-0.79375 l 0.410865,-0.383806 h -1.866073 -1.866075 v 0.79375 0.79375 h 1.455208 1.455209 z m 15.345833,0 c 0,-0.288015 0.122203,-0.524099 0.410866,-0.79375 l 0.410865,-0.383806 h -7.002536 -7.002537 l 0.05954,0.405687 c 0.046,0.313407 -0.02503,0.493957 -0.312247,0.79375 l -0.371785,0.388063 h 6.903917 6.903917 z m 15.610417,-0.383806 v -0.79375 H 61.57763 54.853668 l 0.05954,0.405687 c 0.046,0.313407 -0.02503,0.493957 -0.312247,0.79375 l -0.371785,0.388063 h 7.036209 7.036209 z m 5.423958,0 v -0.79375 h -2.579687 -2.579688 v 0.79375 0.79375 h 2.579688 2.579687 z m 3.042708,0.383806 c 0,-0.288015 0.122204,-0.524099 0.410867,-0.79375 l 0.410864,-0.383806 h -1.866073 -1.866074 v 0.79375 0.79375 h 1.455208 1.455208 z m 15.345834,0 c 0,-0.288015 0.122203,-0.524099 0.410866,-0.79375 l 0.410865,-0.383806 h -7.002537 -7.002536 l 0.05954,0.405687 c 0.046,0.313407 -0.02503,0.493957 -0.312246,0.79375 l -0.371786,0.388063 h 6.903917 6.903917 z m 4.497916,-0.383806 v -0.79375 h -1.167713 -1.167712 l 0.05954,0.405687 c 0.046,0.313407 -0.02503,0.493957 -0.312247,0.79375 l -0.371785,0.388063 h 1.479959 1.479958 z m 16.85398,0.464119 c 0.77865,-0.593901 1.79914,-0.554365 1.79914,0.0697 0,0.243936 0.0977,0.259928 1.5875,0.259928 h 1.5875 v -0.79375 -0.79375 H 107.79065 97.141177 v 0.79375 0.79375 h 7.946323 7.94633 z m 15.47813,0 c 0.77864,-0.593901 1.79914,-0.554365 1.79914,0.0697 0,0.243936 0.0977,0.259928 1.5875,0.259928 h 1.5875 v -0.79375 -0.79375 h -6.6302 -6.63019 l -0.46584,0.409013 c -0.38395,0.337115 -0.55562,0.400451 -0.97658,0.360307 -0.49878,-0.04757 -0.51074,-0.03856 -0.51074,0.384736 v 0.433444 h 4.90362 4.90361 z m 24.34166,0 c 0.77864,-0.593901 1.79914,-0.554365 1.79914,0.0697 0,0.243936 0.0977,0.259928 1.5875,0.259928 h 1.5875 v -0.79375 -0.79375 h -11.06196 -11.06197 l -0.46885,0.411663 c -0.40956,0.359606 -0.54143,0.403483 -1.04272,0.34698 l -0.57387,-0.06468 v 0.44677 0.446771 h 9.40153 9.40153 z m 15.34584,0 c 0.77864,-0.593901 1.79914,-0.554365 1.79914,0.0697 0,0.243936 0.0977,0.259928 1.5875,0.259928 h 1.5875 v -0.79375 -0.79375 h -6.56405 -6.56405 l -0.46886,0.411663 c -0.40956,0.359606 -0.54143,0.403483 -1.04272,0.34698 l -0.57387,-0.06468 v 0.44677 0.446771 h 4.90362 4.90361 z m 9.47205,-0.464119 v -0.79375 h -1.14009 c -1.08564,0 -1.16233,0.01953 -1.60593,0.409013 -0.38395,0.337115 -0.55561,0.400451 -0.97657,0.360306 -0.49878,-0.04757 -0.51074,-0.03856 -0.51074,0.384737 v 0.433444 h 2.11667 2.11666 z M 7.0498954,5.2258241 c 3.62e-4,-0.05457 -0.207702,-0.09922 -0.462364,-0.09922 -0.50363,0 -0.534795,0.06034 -0.320095,0.619773 l 0.142925,0.372414 0.319439,-0.396875 c 0.175691,-0.21828 0.319734,-0.441522 0.320095,-0.496092 z m 0.277047,-0.747916 c 0.150124,-0.50107 0.07248,-1.472315 -0.11702,-1.463762 -0.375646,0.01695 -1.084178,1.07256 -1.084917,1.616365 -4.5e-4,0.33571 0.03996,0.363802 0.523362,0.363802 0.49439,0 0.532559,-0.02905 0.678575,-0.516405 z m 26.9756926,-0.07891 c 0,-0.388407 -0.05747,-0.595084 -0.165364,-0.594654 -0.156574,6.21e-4 -4.1179,1.006597 -4.398698,1.117044 -0.07276,0.02862 0.924388,0.05673 2.215885,0.06248 l 2.348177,0.01044 z m 39.422917,0 c 0,-0.389145 -0.05727,-0.594606 -0.165364,-0.593271 -0.09095,0.0011 -1.147631,0.264637 -2.348178,0.585586 l -2.182812,0.583545 2.348177,0.0097 2.348177,0.0097 z M 34.278763,2.6461361 c 0.02325,-0.163711 -0.0065,-0.29736 -0.06614,-0.296998 -0.08951,5.43e-4 -2.624695,0.647367 -4.705555,1.200569 -0.388447,0.10327 -0.496094,0.196913 -0.496094,0.43156 0,0.298916 0.0066,0.297985 2.61276,-0.368901 2.37025,-0.606518 2.616684,-0.696201 2.655034,-0.96623 z m 36.965861,0.928868 c 2.296109,-0.584405 2.480043,-0.653284 2.480469,-0.928868 2.65e-4,-0.163711 -0.04419,-0.295734 -0.09876,-0.293384 -0.05457,0.0023 -1.200546,0.290943 -2.546614,0.641317 -2.16401,0.563281 -2.452291,0.670014 -2.48967,0.92177 -0.02325,0.156598 0.0065,0.285996 0.06615,0.28755 0.05963,0.0016 1.224424,-0.281219 2.588429,-0.628385 z M 1.3361584,16.76838 c 0.315305,-0.643284 0.355135,-0.87299 0.344082,-1.984375 -0.0079,-0.796244 -0.147107,-1.932517 -0.379785,-3.100414 C 0.99395433,10.145148 0.94338233,9.6087563 0.99487433,8.4424431 c 0.03952,-0.895252 0.14257207,-1.587813 0.28668707,-1.926776 0.285714,-0.672006 0.869114,-1.521354 1.044987,-1.521354 0.07414,0 0.04322,0.10418 -0.06872,0.231511 -0.111941,0.12733 -0.339389,0.499401 -0.505442,0.826823 -0.479749,0.945968 -0.492563,2.203025 -0.04585,4.4979159 0.628385,3.228194 0.465266,5.499306 -0.477069,6.642234 -0.174406,0.21153 -0.142177,0.08333 0.106694,-0.424417 z"
       id="path293" /></g></svg>
