<?xml version="1.0" encoding="UTF-8" standalone="no"?>
<!-- Created with Inkscape (http://www.inkscape.org/) -->

<svg
   width="100mm"
   height="70mm"
   viewBox="0 0 100 70"
   version="1.1"
   id="svg5"
   xml:space="preserve"
   inkscape:version="1.2.2 (732a01da63, 2022-12-09)"
   sodipodi:docname="hymnus.svg"
   xmlns:inkscape="http://www.inkscape.org/namespaces/inkscape"
   xmlns:sodipodi="http://sodipodi.sourceforge.net/DTD/sodipodi-0.dtd"
   xmlns="http://www.w3.org/2000/svg"
   xmlns:svg="http://www.w3.org/2000/svg"><sodipodi:namedview
     id="namedview7"
     pagecolor="#ffffff"
     bordercolor="#000000"
     borderopacity="0.25"
     inkscape:showpageshadow="2"
     inkscape:pageopacity="0.0"
     inkscape:pagecheckerboard="0"
     inkscape:deskcolor="#d1d1d1"
     inkscape:document-units="mm"
     showgrid="false"
     inkscape:zoom="1.1206455"
     inkscape:cx="152.14445"
     inkscape:cy="203.00799"
     inkscape:window-width="1128"
     inkscape:window-height="730"
     inkscape:window-x="-6"
     inkscape:window-y="-6"
     inkscape:window-maximized="1"
     inkscape:current-layer="layer1" /><defs
     id="defs2" /><g
     inkscape:label="Layer 1"
     inkscape:groupmode="layer"
     id="layer1"><path
       style="fill:#000000;stroke-width:0.132292"
       d="m 87.944811,61.613196 c -4.152858,-3.848378 -7.671515,-7.102779 -7.81924,-7.232002 -0.257877,-0.225582 -0.360348,-0.221265 -2.569473,0.108212 -7.523387,1.122072 -14.375267,3.143791 -19.746389,5.826382 -4.004441,2.000007 -6.692016,3.916271 -9.05515,6.456401 -0.565961,0.608351 -0.817577,0.679071 -0.817577,0.22979 0,-0.127822 -0.550664,-0.768721 -1.223698,-1.424219 C 39.37719,58.432809 23.707599,53.776526 6.76157,53.705943 L 2.958554,53.690103 2.958184,28.389322 C 2.957857,5.9877693 2.980554,3.0885413 3.156252,3.0885413 c 0.109141,0 0.198437,0.05005 0.198437,0.111224 0,0.06117 1.26504,0.14962 2.811198,0.196548 12.849318,0.389998 23.827839,3.62802 32.120564,9.4736877 l 1.305046,0.919948 0.898524,-0.934576 c 1.10555,-1.149906 2.652923,-2.367006 4.141302,-3.2573747 5.296361,-3.168354 11.926637,-3.358597 17.497924,-0.502069 1.382637,0.70891 1.393532,0.711903 1.768482,0.485796 0.207501,-0.12513 1.055533,-0.541926 1.884515,-0.926213 7.508716,-3.480781 16.228027,-5.378755 25.981457,-5.655507 1.65811,-0.04705 3.04572,-0.135672 3.08359,-0.196941 0.0379,-0.06127 0.15463,-0.111398 0.25948,-0.111398 0.16531,0 0.19063,3.361013 0.19063,25.3091167 V 53.3099 l -2.8112,0.02949 c -2.65259,0.02783 -6.83109,0.22546 -6.93356,0.327933 -0.0258,0.02578 2.81033,2.690591 6.30248,5.921803 3.49214,3.231212 6.3501,5.93523 6.35102,6.008931 9.3e-4,0.0737 -0.60861,0.781593 -1.3545,1.573092 l -1.35618,1.439092 z m 9.72098,3.983158 c -0.008,-0.135066 -28.192792,-26.291119 -28.406721,-26.36243 -0.122571,-0.04086 -2.272087,2.165164 -2.272087,2.331813 0,0.05227 2.1542,2.087257 4.787112,4.5222 2.632911,2.434942 9.047403,8.377481 14.254426,13.205643 l 9.46732,8.778475 1.08911,-1.171705 c 0.59902,-0.644437 1.08539,-1.231236 1.08084,-1.303996 z M 51.932753,63.572247 c 4.734432,-3.547436 11.691302,-6.467843 19.61348,-8.233495 1.931045,-0.430382 5.760396,-1.102151 7.18677,-1.26075 0.457577,-0.05088 0.814764,-0.142167 0.79375,-0.202864 -0.02101,-0.0607 -2.955239,-2.811535 -6.520499,-6.112976 l -6.482292,-6.002616 -0.926042,0.758295 c -2.463918,2.017595 -5.20659,3.330283 -8.30945,3.977036 -1.938392,0.404034 -5.061633,0.403519 -6.904092,-0.0012 -0.727604,-0.159803 -1.486627,-0.32496 -1.686719,-0.367014 l -0.363802,-0.07641 v 10.354148 10.354147 l 1.157552,-1.112192 c 0.636654,-0.611706 1.735258,-1.545058 2.441344,-2.074116 z m -3.995771,-7.48292 V 45.854696 l -0.628385,-0.23596 c -3.497698,-1.313395 -6.808243,-3.999967 -8.964002,-7.274465 -2.539592,-3.857523 -3.698481,-8.291962 -3.370851,-12.898437 0.284632,-4.00195 1.664123,-7.695736 4.083648,-10.934559 0.171486,-0.229555 0.273664,-0.479064 0.227063,-0.554466 -0.0466,-0.0754 -0.634042,-0.519929 -1.305424,-0.987837 C 31.97992,8.7879943 24.38416,5.8765873 16.019771,4.5521263 12.350814,3.9711643 8.287069,3.6191173 5.239846,3.6182473 L 3.354689,3.6177093 V 28.46731 53.316913 l 3.406511,0.08642 c 13.412628,0.340249 23.952216,2.532214 32.360396,6.730139 3.267611,1.63141 6.225338,3.635864 7.95135,5.388639 0.434284,0.441018 0.806355,0.801851 0.826823,0.801851 0.02047,0 0.03721,-4.605583 0.03721,-10.234631 z m 43.656249,-2.979539 3.24115,-0.08114 V 28.091667 3.1546883 l -2.05052,0.0409 c -9.066707,0.180833 -17.057714,1.695119 -24.540107,4.650317 -1.487743,0.58759 -4.445362,2.018128 -4.401879,2.129097 0.01994,0.05089 0.512504,0.4504287 1.094587,0.8878707 2.230317,1.676109 4.362585,4.265998 5.683931,6.903803 3.142043,6.272457 2.820614,13.898061 -0.839131,19.907668 l -0.558784,0.917569 0.568972,0.554732 c 0.312933,0.305103 3.898682,3.634785 7.968328,7.399293 l 7.399363,6.844559 1.59647,-0.09978 c 0.87806,-0.05488 3.05499,-0.136296 4.83762,-0.180926 z M 56.998962,46.147036 C 62.62469,45.163869 67.559965,41.359633 70.289357,35.902458 74.554249,27.375191 72.12296,16.741677 64.613309,11.077632 63.22465,10.030256 60.449787,8.6340963 58.85499,8.1803603 50.321189,5.7524053 41.50655,9.7497753 37.424405,17.898964 c -3.184241,6.3567 -2.774469,14.053587 1.061998,19.947872 2.026487,3.11346 4.38896,5.207864 7.664642,6.794935 3.466577,1.679559 7.025121,2.173346 10.847917,1.505265 z M 52.10417,43.838394 c -1.529015,-0.172002 -3.484321,-0.761331 -5.032116,-1.516678 -4.741175,-2.313765 -8.135341,-6.887448 -9.136699,-12.31182 -0.288248,-1.561442 -0.2929,-4.498993 -0.0096,-6.093144 0.713647,-4.016447 2.949074,-7.90227 5.915636,-10.283104 2.093525,-1.68017 4.238334,-2.74301 6.66747,-3.304001 1.39777,-0.322805 4.416072,-0.3869737 5.968877,-0.126899 3.773256,0.631971 7.655605,3.026468 9.992998,6.163329 3.953889,5.306253 4.637379,12.229566 1.798004,18.212604 -2.195573,4.626441 -6.457242,8.019443 -11.269729,8.972589 -1.573313,0.311605 -3.613372,0.431273 -4.894792,0.287124 z m 4.621218,-0.593538 c 6.148169,-1.17683 11.158935,-6.307092 12.571353,-12.871158 l 0.09251,-0.429948 H 53.825558 c -14.760576,0 -15.560148,0.01195 -15.494919,0.231511 0.03783,0.12733 0.106603,0.410104 0.152831,0.628385 0.04623,0.218281 0.258381,0.935703 0.47145,1.594271 1.872295,5.787024 7.088316,10.252822 12.884667,11.031459 1.13094,0.151921 3.619023,0.05796 4.885801,-0.18452 z m 12.83935,-14.921679 c 0.0489,-0.673034 0.06934,-1.580885 0.04542,-2.017448 l -0.04349,-0.79375 -3.40651,-0.03531 -3.406511,-0.03531 v 1.141955 1.141956 l -0.748343,-0.0935 c -1.13356,-0.141629 -1.10374,-0.108995 -1.10374,-1.207912 v -0.978033 h -3.770313 -3.770312 v 1.00691 1.00691 l -0.496094,-0.08539 c -1.331354,-0.229161 -1.223696,-0.133343 -1.223696,-1.08911 v -0.859458 l -1.02526,0.05652 c -0.563894,0.03108 -1.405123,0.146198 -1.869398,0.255807 -0.802747,0.189517 -0.847289,0.187241 -0.908398,-0.04644 -0.06113,-0.23376 -0.298388,-0.245733 -4.869372,-0.245733 h -4.80511 l -0.09062,0.604264 c -0.08758,0.584 0.01846,2.792795 0.156761,3.265267 0.06404,0.218793 0.924114,0.23151 15.65692,0.23151 h 15.589156 z m -21.73145,-4.691181 0.03755,-1.416963 0.793751,-0.164765 c 0.436562,-0.09062 0.838398,-0.167363 0.892968,-0.170538 0.05457,-0.0032 0.09922,0.708604 0.09922,1.581729 v 1.5875 h 1.007617 c 0.980376,0 1.00546,-0.008 0.927849,-0.297657 -0.04387,-0.163711 -0.08058,-1.086445 -0.08158,-2.050521 l -0.0018,-1.752864 h -2.778125 -2.778125 v 0.444758 c 0,0.43478 -0.01682,0.448135 -0.749668,0.595312 -1.11134,0.223188 -1.102415,0.226789 -1.102415,-0.444758 V 20.947917 H 41.592591 39.08465 l -0.277946,0.933294 c -0.248475,0.83433 -0.659299,2.733045 -0.659299,3.047094 0,0.07047 2.006454,0.120654 4.82417,0.120654 h 4.824171 z m 13.068278,0.829458 c 0,-0.323128 0.04465,-0.609559 0.09922,-0.636514 0.05457,-0.02695 0.471289,0.0045 0.926041,0.06989 l 0.826823,0.118897 v 0.517616 0.517617 h 3.373438 c 2.817011,0 3.373438,-0.03081 3.373438,-0.1868 0,-0.411796 -0.412469,-2.30613 -0.671838,-3.085537 l -0.275776,-0.828705 h -1.047547 -1.047548 v 1.59002 1.59002 l -0.363802,-0.08193 C 65.893924,24.000968 65.506971,23.90824 65.234119,23.839971 L 64.738025,23.715847 V 22.331884 20.94792 h -2.84427 -2.844271 v 0.450606 c 0,0.444204 -0.0099,0.45186 -0.694532,0.538737 -0.381992,0.04847 -0.798711,0.117599 -0.926041,0.15362 -0.196254,0.05552 -0.231511,-0.02653 -0.231511,-0.538735 V 20.94792 h -1.918229 -1.918229 v 0.444559 0.444561 l -0.826823,0.117679 -0.826823,0.11768 -0.03944,0.678615 -0.03943,0.678616 0.502454,0.08659 c 1.313554,0.22636 1.23006,0.166505 1.23006,0.881799 v 0.650947 h 3.770312 3.770313 z M 44.100524,19.509617 v -1.041425 l 0.496094,-0.07954 c 0.272851,-0.04375 0.68957,-0.118325 0.926041,-0.165736 l 0.429948,-0.0862 v 1.207161 1.207162 h 2.844271 2.844271 v -1.050526 c 0,-0.577789 0.04465,-1.076371 0.09922,-1.107959 0.05457,-0.03159 0.441523,-0.09892 0.859896,-0.14962 l 0.760677,-0.09218 v 1.200143 1.200145 H 55.279171 57.1974 V 19.50705 c 0,-1.16975 -0.07749,-1.088911 1.223698,-1.276639 l 0.628386,-0.09066 v 1.205647 1.205645 h 2.844271 c 2.765022,0 2.84427,-0.0074 2.84427,-0.267104 0,-0.290807 0.07269,-0.286041 1.322917,0.08674 0.725367,0.216281 2.248959,0.241189 2.248959,0.03677 0,-0.268461 -1.31699,-2.69775 -1.82271,-3.362129 L 65.983693,16.383854 H 54.082994 42.182295 l -0.0367,1.802596 -0.0367,1.802594 -0.765731,0.214854 c -0.421151,0.118168 -0.803968,0.214852 -0.850704,0.214852 -0.04674,0 -0.102362,-0.461367 -0.123614,-1.02526 l -0.03864,-1.025261 -0.412695,0.79375 c -0.226983,0.436563 -0.454237,0.927696 -0.505009,1.091407 l -0.09231,0.297656 h 2.390166 2.390165 z m 21.438384,-3.707745 c -0.07396,-0.138191 -0.596949,-0.679051 -1.162207,-1.201912 -3.573667,-3.305636 -8.197175,-4.7575947 -12.867844,-4.040996 -2.967152,0.455236 -5.640912,1.76824 -8.225901,4.039494 -0.413282,0.363122 -0.878702,0.838973 -1.034268,1.057446 l -0.282848,0.397221 h 11.853768 c 11.603157,0 11.850925,-0.0053 11.7193,-0.251253 z"
       id="path179" /></g></svg>
